<svg width="1920" height="1080" viewBox="0 0 1920 1080" fill="none" xmlns="http://www.w3.org/2000/svg">
<g clip-path="url(#clip0_3093_982)">
<rect width="1920" height="1080" fill="white"/>
<g filter="url(#filter0_f_3093_982)">
<circle cx="1532" cy="364" r="750" fill="#FF8844"/>
</g>
<g filter="url(#filter1_f_3093_982)">
<circle cx="2114" cy="540" r="750" fill="#FFCC00"/>
</g>
<g filter="url(#filter2_f_3093_982)">
<circle cx="352" cy="-98" r="750" fill="#EE2244"/>
</g>
<g filter="url(#filter3_f_3093_982)">
<circle cy="137" r="750" fill="#AA55EE"/>
</g>
<g filter="url(#filter4_f_3093_982)">
<circle cx="960" cy="1402" r="750" fill="#44BBFF"/>
</g>
<g filter="url(#filter5_f_3093_982)">
<circle cx="1941" cy="1290" r="750" fill="#00CC66"/>
</g>
<g filter="url(#filter6_f_3093_982)">
<circle cx="-43" cy="1146" r="750" fill="#0077FF"/>
</g>
<path fill-rule="evenodd" clip-rule="evenodd" d="M614.963 468.374C580.567 452.558 545.058 488.067 560.874 522.463C565.846 533.277 565.846 545.723 560.874 556.537C545.058 590.933 580.567 626.442 614.963 610.626C625.777 605.654 638.223 605.654 649.037 610.626C683.433 626.442 718.942 590.933 703.126 556.537C698.154 545.723 698.154 533.277 703.126 522.463C718.942 488.067 683.433 452.558 649.037 468.374C638.223 473.346 625.777 473.346 614.963 468.374ZM649.185 513.79L645.533 503.922C640.885 491.359 623.115 491.359 618.467 503.922L614.815 513.79C613.354 517.74 610.24 520.854 606.29 522.315L596.422 525.967C583.859 530.615 583.859 548.385 596.422 553.033L606.29 556.685C610.24 558.146 613.354 561.26 614.815 565.21L618.467 575.078C623.115 587.641 640.885 587.641 645.533 575.078L649.185 565.21C650.646 561.26 653.76 558.146 657.71 556.685L667.578 553.033C680.141 548.385 680.141 530.615 667.578 525.967L657.71 522.315C653.76 520.854 650.646 517.74 649.185 513.79Z" fill="white"/>
<path d="M845.281 602.978C834.295 602.978 824.462 600.396 815.783 595.232C807.104 590.014 800.265 582.653 795.266 573.15C790.267 563.646 787.768 552.495 787.768 539.696C787.768 526.787 790.267 515.581 795.266 506.078C800.265 496.575 807.104 489.242 815.783 484.078C824.462 478.859 834.295 476.25 845.281 476.25C852.367 476.25 858.932 477.321 864.974 479.464C871.072 481.606 876.482 484.655 881.207 488.61C885.931 492.51 889.803 497.179 892.825 502.617C895.901 508.001 897.906 513.988 898.84 520.58H875.933C875.164 516.955 873.873 513.659 872.06 510.692C870.303 507.726 868.078 505.199 865.386 503.112C862.75 500.969 859.756 499.322 856.405 498.168C853.054 497.014 849.429 496.438 845.528 496.438C838.442 496.438 832.262 498.223 826.989 501.793C821.716 505.364 817.651 510.39 814.794 516.872C811.938 523.354 810.51 530.962 810.51 539.696C810.51 548.375 811.938 555.956 814.794 562.438C817.651 568.865 821.716 573.864 826.989 577.434C832.262 581.005 838.442 582.79 845.528 582.79C849.429 582.79 853.054 582.241 856.405 581.142C859.756 579.989 862.75 578.368 865.386 576.281C868.078 574.138 870.303 571.612 872.06 568.7C873.873 565.734 875.192 562.438 876.016 558.812H898.84C897.851 565.349 895.846 571.337 892.825 576.775C889.803 582.158 885.903 586.8 881.124 590.7C876.4 594.6 871.017 597.622 864.974 599.764C858.932 601.906 852.367 602.978 845.281 602.978ZM949.847 602.978C941.278 602.978 933.724 601.082 927.188 597.292C920.706 593.447 915.652 588.119 912.026 581.307C908.456 574.495 906.671 566.585 906.671 557.577C906.671 548.513 908.456 540.575 912.026 533.764C915.652 526.952 920.706 521.624 927.188 517.779C933.724 513.933 941.278 512.011 949.847 512.011C958.471 512.011 966.024 513.933 972.506 517.779C978.988 521.624 984.014 526.952 987.585 533.764C991.21 540.575 993.023 548.513 993.023 557.577C993.023 566.585 991.21 574.495 987.585 581.307C984.014 588.119 978.988 593.447 972.506 597.292C966.024 601.082 958.471 602.978 949.847 602.978ZM949.847 585.097C954.187 585.097 957.949 583.999 961.135 581.801C964.376 579.549 966.876 576.363 968.634 572.243C970.391 568.123 971.27 563.234 971.27 557.577C971.27 551.864 970.391 546.947 968.634 542.827C966.876 538.708 964.376 535.521 961.135 533.269C957.949 531.017 954.187 529.891 949.847 529.891C945.562 529.891 941.799 531.017 938.558 533.269C935.318 535.467 932.818 538.653 931.06 542.827C929.302 546.947 928.424 551.864 928.424 557.577C928.424 563.289 929.302 568.206 931.06 572.326C932.818 576.391 935.29 579.549 938.476 581.801C941.717 583.999 945.507 585.097 949.847 585.097ZM1025.49 478.228V601H1003.9V478.228H1025.49ZM1079.55 602.978C1070.98 602.978 1063.42 601.082 1056.89 597.292C1050.41 593.447 1045.35 588.119 1041.73 581.307C1038.16 574.495 1036.37 566.585 1036.37 557.577C1036.37 548.513 1038.16 540.575 1041.73 533.764C1045.35 526.952 1050.41 521.624 1056.89 517.779C1063.42 513.933 1070.98 512.011 1079.55 512.011C1088.17 512.011 1095.72 513.933 1102.21 517.779C1108.69 521.624 1113.71 526.952 1117.29 533.764C1120.91 540.575 1122.72 548.513 1122.72 557.577C1122.72 566.585 1120.91 574.495 1117.29 581.307C1113.71 588.119 1108.69 593.447 1102.21 597.292C1095.72 601.082 1088.17 602.978 1079.55 602.978ZM1079.55 585.097C1083.89 585.097 1087.65 583.999 1090.84 581.801C1094.08 579.549 1096.58 576.363 1098.33 572.243C1100.09 568.123 1100.97 563.234 1100.97 557.577C1100.97 551.864 1100.09 546.947 1098.33 542.827C1096.58 538.708 1094.08 535.521 1090.84 533.269C1087.65 531.017 1083.89 529.891 1079.55 529.891C1075.26 529.891 1071.5 531.017 1068.26 533.269C1065.02 535.467 1062.52 538.653 1060.76 542.827C1059 546.947 1058.12 551.864 1058.12 557.577C1058.12 563.289 1059 568.206 1060.76 572.326C1062.52 576.391 1064.99 579.549 1068.18 581.801C1071.42 583.999 1075.21 585.097 1079.55 585.097ZM1192.85 563.756V513.988H1214.44V601H1193.09V586.004H1192.85C1190.92 590.838 1187.71 594.848 1183.21 598.034C1178.76 601.22 1173.13 602.813 1166.31 602.813C1160.27 602.813 1154.75 601.467 1149.75 598.775C1144.81 596.029 1140.88 592.101 1137.97 586.992C1135.06 581.829 1133.6 575.622 1133.6 568.371V513.988H1155.19V565.075C1155.19 571.392 1156.84 576.198 1160.14 579.494C1163.49 582.79 1167.96 584.438 1173.57 584.438C1177.14 584.438 1180.38 583.697 1183.29 582.213C1186.2 580.73 1188.51 578.478 1190.21 575.457C1191.97 572.381 1192.85 568.48 1192.85 563.756ZM1229.35 601V513.988H1250.12V528.49H1250.45C1252.04 523.437 1254.54 519.619 1257.94 517.037C1261.35 514.455 1265.88 513.164 1271.54 513.164C1272.91 513.164 1274.18 513.219 1275.33 513.329C1276.54 513.384 1277.55 513.439 1278.38 513.494V532.445C1277.61 532.335 1276.26 532.226 1274.34 532.116C1272.47 531.951 1270.5 531.869 1268.41 531.869C1265.17 531.869 1262.2 532.638 1259.51 534.176C1256.87 535.659 1254.79 537.911 1253.25 540.932C1251.71 543.899 1250.94 547.661 1250.94 552.221V601H1229.35ZM1356.49 541.179H1336.31C1336.25 537.389 1334.77 534.258 1331.86 531.786C1329 529.259 1325.27 527.996 1320.65 527.996C1316.2 527.996 1312.66 528.985 1310.02 530.962C1307.44 532.94 1306.15 535.384 1306.15 538.296C1306.15 540.822 1307.14 542.882 1309.12 544.475C1311.15 546.068 1313.95 547.249 1317.52 548.018L1333.34 551.232C1342.02 553.045 1348.39 555.901 1352.46 559.801C1356.58 563.646 1358.64 568.755 1358.64 575.127C1358.64 580.84 1357.04 585.784 1353.86 589.959C1350.67 594.134 1346.28 597.375 1340.67 599.682C1335.07 601.934 1328.64 603.06 1321.39 603.06C1314.2 603.06 1307.77 601.961 1302.11 599.764C1296.45 597.512 1291.92 594.216 1288.52 589.876C1285.11 585.537 1283.16 580.236 1282.67 573.974H1303.93C1304.42 578.148 1306.12 581.389 1309.03 583.697C1311.95 585.949 1315.93 587.075 1320.98 587.075C1325.93 587.075 1329.8 586.114 1332.6 584.191C1335.4 582.268 1336.8 579.824 1336.8 576.858C1336.8 574.276 1335.76 572.216 1333.67 570.678C1331.58 569.14 1328.7 567.986 1325.02 567.217L1310.11 564.168C1301.76 562.465 1295.41 559.499 1291.07 555.269C1286.79 551.04 1284.64 545.629 1284.64 539.037C1284.64 533.654 1286.1 528.957 1289.01 524.947C1291.92 520.882 1296.04 517.724 1301.37 515.471C1306.7 513.219 1312.96 512.093 1320.16 512.093C1327.3 512.093 1333.56 513.274 1338.94 515.636C1344.33 517.998 1348.56 521.349 1351.63 525.689C1354.71 530.028 1356.33 535.192 1356.49 541.179Z" fill="white"/>
</g>
<defs>
<filter id="filter0_f_3093_982" x="182" y="-986" width="2700" height="2700" filterUnits="userSpaceOnUse" color-interpolation-filters="sRGB">
<feFlood flood-opacity="0" result="BackgroundImageFix"/>
<feBlend mode="normal" in="SourceGraphic" in2="BackgroundImageFix" result="shape"/>
<feGaussianBlur stdDeviation="300" result="effect1_foregroundBlur_3093_982"/>
</filter>
<filter id="filter1_f_3093_982" x="764" y="-810" width="2700" height="2700" filterUnits="userSpaceOnUse" color-interpolation-filters="sRGB">
<feFlood flood-opacity="0" result="BackgroundImageFix"/>
<feBlend mode="normal" in="SourceGraphic" in2="BackgroundImageFix" result="shape"/>
<feGaussianBlur stdDeviation="300" result="effect1_foregroundBlur_3093_982"/>
</filter>
<filter id="filter2_f_3093_982" x="-998" y="-1448" width="2700" height="2700" filterUnits="userSpaceOnUse" color-interpolation-filters="sRGB">
<feFlood flood-opacity="0" result="BackgroundImageFix"/>
<feBlend mode="normal" in="SourceGraphic" in2="BackgroundImageFix" result="shape"/>
<feGaussianBlur stdDeviation="300" result="effect1_foregroundBlur_3093_982"/>
</filter>
<filter id="filter3_f_3093_982" x="-1350" y="-1213" width="2700" height="2700" filterUnits="userSpaceOnUse" color-interpolation-filters="sRGB">
<feFlood flood-opacity="0" result="BackgroundImageFix"/>
<feBlend mode="normal" in="SourceGraphic" in2="BackgroundImageFix" result="shape"/>
<feGaussianBlur stdDeviation="300" result="effect1_foregroundBlur_3093_982"/>
</filter>
<filter id="filter4_f_3093_982" x="-390" y="52" width="2700" height="2700" filterUnits="userSpaceOnUse" color-interpolation-filters="sRGB">
<feFlood flood-opacity="0" result="BackgroundImageFix"/>
<feBlend mode="normal" in="SourceGraphic" in2="BackgroundImageFix" result="shape"/>
<feGaussianBlur stdDeviation="300" result="effect1_foregroundBlur_3093_982"/>
</filter>
<filter id="filter5_f_3093_982" x="591" y="-60" width="2700" height="2700" filterUnits="userSpaceOnUse" color-interpolation-filters="sRGB">
<feFlood flood-opacity="0" result="BackgroundImageFix"/>
<feBlend mode="normal" in="SourceGraphic" in2="BackgroundImageFix" result="shape"/>
<feGaussianBlur stdDeviation="300" result="effect1_foregroundBlur_3093_982"/>
</filter>
<filter id="filter6_f_3093_982" x="-1393" y="-204" width="2700" height="2700" filterUnits="userSpaceOnUse" color-interpolation-filters="sRGB">
<feFlood flood-opacity="0" result="BackgroundImageFix"/>
<feBlend mode="normal" in="SourceGraphic" in2="BackgroundImageFix" result="shape"/>
<feGaussianBlur stdDeviation="300" result="effect1_foregroundBlur_3093_982"/>
</filter>
<clipPath id="clip0_3093_982">
<rect width="1920" height="1080" fill="white"/>
</clipPath>
</defs>
</svg>
