<svg width="1920" height="1080" viewBox="0 0 1920 1080" fill="none" xmlns="http://www.w3.org/2000/svg">
<g clip-path="url(#clip0_3085_859)">
<rect width="1920" height="1080" fill="#111133"/>
<path fill-rule="evenodd" clip-rule="evenodd" d="M1260 -45.625C1225.48 -45.625 1197.5 -17.6428 1197.5 16.875V60.625C1197.5 64.0768 1194.7 66.875 1191.25 66.875C1187.8 66.875 1185 64.0768 1185 60.625V16.875C1185 -24.5464 1218.58 -58.125 1260 -58.125C1301.42 -58.125 1335 -24.5464 1335 16.875V60.625C1335 64.0768 1332.2 66.875 1328.75 66.875C1325.3 66.875 1322.5 64.0768 1322.5 60.625V16.875C1322.5 -17.6428 1294.52 -45.625 1260 -45.625Z" fill="#00CC66"/>
<path fill-rule="evenodd" clip-rule="evenodd" d="M1222.5 26.25C1231.13 26.25 1238.12 33.2456 1238.12 41.875V79.375C1238.12 88.0045 1231.13 95 1222.5 95C1213.87 95 1206.88 88.0045 1206.88 79.375V41.875C1206.88 33.2456 1213.87 26.25 1222.5 26.25ZM1297.5 26.25C1306.13 26.25 1313.12 33.2456 1313.12 41.875V79.375C1313.12 88.0045 1306.13 95 1297.5 95C1288.87 95 1281.88 88.0045 1281.88 79.375V41.875C1281.88 33.2456 1288.87 26.25 1297.5 26.25Z" fill="#00CC66"/>
<path fill-rule="evenodd" clip-rule="evenodd" d="M947.5 -61.2502C955.235 -65.7161 964.765 -65.7161 972.5 -61.2502L1024.11 -31.4506C1027.94 -29.2404 1031.04 -26.1012 1033.2 -22.4134C1035.4 -18.6501 1036.61 -14.3108 1036.61 -9.79993V49.7994C1036.61 58.7311 1031.85 66.9843 1024.11 71.4501L972.5 101.25C968.633 103.482 964.315 104.599 960 104.599C955.685 104.599 951.367 103.483 947.5 101.25L895.885 71.4501C888.15 66.9843 883.385 58.7311 883.385 49.7994V-9.79993C883.385 -14.3109 884.602 -18.6503 886.801 -22.4136C888.956 -26.1013 892.057 -29.2405 895.885 -31.4506L947.5 -61.2502ZM966.25 -50.4249C962.383 -52.6578 957.618 -52.6578 953.75 -50.4249L937.334 -40.9473L994.018 -8.33654L1017.49 -20.8438L966.25 -50.4249ZM1024.11 -10.2086L966.25 20.6261V90.4243L1017.86 60.6248C1021.73 58.3918 1024.11 54.2652 1024.11 49.7994V-9.79993C1024.11 -9.93647 1024.11 -10.0727 1024.11 -10.2086ZM953.75 90.4245V20.6261L895.892 -10.2088C895.888 -10.0728 895.885 -9.93654 895.885 -9.79993V49.7994C895.885 54.2653 898.268 58.3918 902.135 60.6248L953.75 90.4245C953.75 90.4246 953.75 90.4245 953.75 90.4245ZM902.514 -20.8439L960 9.79258L981.005 -1.40173L924.823 -33.724L902.514 -20.8439Z" fill="#AACF3B"/>
<path fill-rule="evenodd" clip-rule="evenodd" d="M610 -42.5C603.096 -42.5 597.5 -36.9036 597.5 -30V70C597.5 76.9036 603.096 82.5 610 82.5H710C716.904 82.5 722.5 76.9036 722.5 70V-30C722.5 -36.9036 716.904 -42.5 710 -42.5H610ZM585 -30C585 -43.8071 596.193 -55 610 -55H710C723.807 -55 735 -43.8071 735 -30V70C735 83.8071 723.807 95 710 95H610C596.193 95 585 83.8071 585 70V-30Z" fill="#FFCC00"/>
<path d="M641.174 12.0961C641.174 8.93547 643.736 6.37329 646.897 6.37329V6.37329C650.057 6.37329 652.619 8.93546 652.619 12.0961V44.5608C652.619 48.0908 651.826 51.1572 650.239 53.76C648.671 56.3629 646.487 58.3686 643.688 59.777C640.889 61.1854 637.635 61.8896 633.927 61.8896C630.629 61.8896 627.634 61.3102 624.942 60.1514C622.267 58.9747 620.146 57.1919 618.577 54.803C617.925 53.8023 617.41 52.6953 617.032 51.482C616.074 48.4088 618.851 45.7375 622.07 45.7375H623.921C626.065 45.7375 627.648 47.5633 628.659 49.4546V49.4546C629.229 50.4708 630.005 51.2552 630.985 51.8079C631.984 52.3427 633.16 52.6101 634.515 52.6101C635.941 52.6101 637.145 52.3071 638.125 51.7009C639.124 51.0769 639.881 50.1677 640.398 48.9732C640.915 47.7788 641.174 46.308 641.174 44.5608V12.0961Z" fill="#FFCC00"/>
<path d="M697.133 22.1243C694.165 22.1243 691.895 19.5078 689.682 17.5294C689.514 17.3788 689.336 17.2346 689.149 17.0968C687.527 15.9023 685.325 15.3051 682.544 15.3051C680.654 15.3051 679.058 15.5725 677.757 16.1074C676.455 16.6244 675.457 17.3464 674.762 18.2735C674.084 19.2005 673.746 20.2524 673.746 21.429C673.71 22.4096 673.915 23.2653 674.361 23.9962C674.824 24.7272 675.457 25.3601 676.259 25.8949C677.062 26.4119 677.989 26.8665 679.041 27.2588C680.092 27.6331 681.216 27.9541 682.41 28.2215L687.331 29.3981C689.719 29.933 691.912 30.6461 693.909 31.5375C695.906 32.4289 697.635 33.5253 699.097 34.8267C700.559 36.1282 701.691 37.6614 702.493 39.4264C703.313 41.1913 703.732 43.2148 703.75 45.4968C703.732 48.8484 702.877 51.7544 701.183 54.2147C699.507 56.6571 697.082 58.5558 693.909 59.9107C690.754 61.2478 686.947 61.9163 682.49 61.9163C678.069 61.9163 674.218 61.2389 670.938 59.884C667.675 58.529 665.126 56.5234 663.29 53.867C662.442 52.6207 661.782 51.237 661.311 49.7158C660.359 46.6476 663.072 43.9457 666.284 43.9457H666.701C669.477 43.9457 671.54 46.3279 673.211 48.5454V48.5454C674.156 49.7577 675.413 50.6758 676.981 51.2998C678.568 51.9059 680.36 52.209 682.357 52.209C684.318 52.209 686.02 51.9238 687.464 51.3533C688.926 50.7828 690.058 49.9894 690.86 48.9732C691.663 47.957 692.064 46.7893 692.064 45.47C692.064 44.2399 691.698 43.2059 690.967 42.368C690.254 41.5301 689.202 40.8169 687.812 40.2286C686.439 39.6403 684.754 39.1055 682.758 38.6241L676.794 37.1265C672.177 36.0034 668.531 34.2473 665.857 31.8584C663.183 29.4694 661.854 26.2515 661.872 22.2045C661.854 18.8885 662.737 15.9915 664.52 13.5134C666.32 11.0353 668.789 9.10097 671.927 7.71039C675.065 6.3198 678.63 5.62451 682.624 5.62451C686.689 5.62451 690.237 6.3198 693.267 7.71039C696.316 9.10097 698.687 11.0353 700.381 13.5134C701 14.4199 701.51 15.3789 701.91 16.3903C703.096 19.3898 700.358 22.1243 697.133 22.1243V22.1243Z" fill="#FFCC00"/>
<path fill-rule="evenodd" clip-rule="evenodd" d="M1510 -42.5C1503.1 -42.5 1497.5 -36.9036 1497.5 -30V70C1497.5 76.9036 1503.1 82.5 1510 82.5H1610C1616.9 82.5 1622.5 76.9036 1622.5 70V-30C1622.5 -36.9036 1616.9 -42.5 1610 -42.5H1510ZM1485 -30C1485 -43.8071 1496.19 -55 1510 -55H1610C1623.81 -55 1635 -43.8071 1635 -30V70C1635 83.8071 1623.81 95 1610 95H1510C1496.19 95 1485 83.8071 1485 70V-30Z" fill="#11CCBB"/>
<path fill-rule="evenodd" clip-rule="evenodd" d="M1516.25 -55C1519.7 -55 1522.5 -52.2018 1522.5 -48.75V13.75H1597.5V-48.75C1597.5 -52.2018 1600.3 -55 1603.75 -55C1607.2 -55 1610 -52.2018 1610 -48.75V-23.75H1627.19C1630.64 -23.75 1633.44 -20.9518 1633.44 -17.5C1633.44 -14.0482 1630.64 -11.25 1627.19 -11.25H1610V13.75H1628.75C1632.2 13.75 1635 16.5482 1635 20C1635 23.4518 1632.2 26.25 1628.75 26.25H1610V51.25H1628.75C1632.2 51.25 1635 54.0482 1635 57.5C1635 60.9518 1632.2 63.75 1628.75 63.75H1610V88.75C1610 92.2018 1607.2 95 1603.75 95C1600.3 95 1597.5 92.2018 1597.5 88.75V26.25H1522.5V88.75C1522.5 92.2018 1519.7 95 1516.25 95C1512.8 95 1510 92.2018 1510 88.75V63.75H1491.25C1487.8 63.75 1485 60.9518 1485 57.5C1485 54.0482 1487.8 51.25 1491.25 51.25H1510V26.25H1491.25C1487.8 26.25 1485 23.4518 1485 20C1485 16.5482 1487.8 13.75 1491.25 13.75H1510V-11.25H1491.25C1487.8 -11.25 1485 -14.0482 1485 -17.5C1485 -20.9518 1487.8 -23.75 1491.25 -23.75H1510V-48.75C1510 -52.2018 1512.8 -55 1516.25 -55Z" fill="#11CCBB"/>
<path fill-rule="evenodd" clip-rule="evenodd" d="M1500.62 230C1493.72 230 1488.12 235.596 1488.12 242.5V317.5C1488.12 324.404 1493.72 330 1500.62 330H1619.37C1626.28 330 1631.88 324.404 1631.88 317.5V242.5C1631.88 235.596 1626.28 230 1619.38 230H1500.62ZM1475.62 242.5C1475.62 228.693 1486.82 217.5 1500.62 217.5H1619.38C1633.18 217.5 1644.38 228.693 1644.38 242.5V317.5C1644.38 331.307 1633.18 342.5 1619.37 342.5H1500.62C1486.82 342.5 1475.62 331.307 1475.62 317.5V242.5Z" fill="#44BBFF"/>
<path fill-rule="evenodd" clip-rule="evenodd" d="M1478.75 242.5H1641.25V267.5H1478.75V242.5Z" fill="#44BBFF"/>
<path fill-rule="evenodd" clip-rule="evenodd" d="M1500.62 298.75C1500.62 295.298 1503.42 292.5 1506.88 292.5H1528.75C1532.2 292.5 1535 295.298 1535 298.75V311.25C1535 314.702 1532.2 317.5 1528.75 317.5H1506.88C1503.42 317.5 1500.62 314.702 1500.62 311.25V298.75Z" fill="#44BBFF"/>
<path fill-rule="evenodd" clip-rule="evenodd" d="M1560 474.375C1523.76 474.375 1494.38 503.756 1494.38 540C1494.38 576.244 1523.76 605.625 1560 605.625C1596.24 605.625 1625.62 576.244 1625.62 540C1625.62 503.756 1596.24 474.375 1560 474.375ZM1481.88 540C1481.88 496.853 1516.85 461.875 1560 461.875C1603.15 461.875 1638.12 496.853 1638.12 540C1638.12 583.147 1603.15 618.125 1560 618.125C1516.85 618.125 1481.88 583.147 1481.88 540Z" fill="#0077FF"/>
<path fill-rule="evenodd" clip-rule="evenodd" d="M1560 527.5C1553.1 527.5 1547.5 533.096 1547.5 540C1547.5 546.904 1553.1 552.5 1560 552.5C1566.9 552.5 1572.5 546.904 1572.5 540C1572.5 533.096 1566.9 527.5 1560 527.5ZM1535 540C1535 526.193 1546.19 515 1560 515C1573.81 515 1585 526.193 1585 540C1585 553.807 1573.81 565 1560 565C1546.19 565 1535 553.807 1535 540Z" fill="#0077FF"/>
<path fill-rule="evenodd" clip-rule="evenodd" d="M1573.57 463.062C1576.97 463.661 1579.24 466.903 1578.64 470.302L1569.41 522.62C1568.81 526.019 1565.57 528.289 1562.17 527.69C1558.77 527.09 1556.5 523.849 1557.1 520.45L1566.33 468.132C1566.93 464.732 1570.17 462.462 1573.57 463.062ZM1557.83 552.31C1561.23 552.909 1563.5 556.151 1562.9 559.55L1553.67 611.868C1553.07 615.268 1549.83 617.537 1546.43 616.938C1543.03 616.339 1540.76 613.097 1541.36 609.698L1550.59 557.38C1551.19 553.98 1554.43 551.711 1557.83 552.31Z" fill="#0077FF"/>
<path fill-rule="evenodd" clip-rule="evenodd" d="M1615.24 484.757C1617.68 487.198 1617.68 491.155 1615.24 493.596L1577.68 531.161C1575.24 533.602 1571.28 533.602 1568.84 531.161C1566.4 528.72 1566.4 524.763 1568.84 522.322L1606.4 484.757C1608.84 482.317 1612.8 482.317 1615.24 484.757ZM1551.16 548.839C1553.6 551.28 1553.6 555.237 1551.16 557.678L1513.6 595.243C1511.16 597.684 1507.2 597.684 1504.76 595.243C1502.32 592.802 1502.32 588.845 1504.76 586.404L1542.32 548.839C1544.76 546.398 1548.72 546.398 1551.16 548.839Z" fill="#0077FF"/>
<path fill-rule="evenodd" clip-rule="evenodd" d="M1500.62 771.875C1498.9 771.875 1497.5 773.274 1497.5 775V787.5C1497.5 789.226 1498.9 790.625 1500.62 790.625H1619.38C1621.1 790.625 1622.5 789.226 1622.5 787.5V775C1622.5 773.274 1621.1 771.875 1619.38 771.875H1500.62ZM1485 775C1485 766.371 1492 759.375 1500.62 759.375H1619.38C1628 759.375 1635 766.371 1635 775V787.5C1635 796.129 1628 803.125 1619.38 803.125H1500.62C1492 803.125 1485 796.129 1485 787.5V775Z" fill="#7766FF"/>
<path fill-rule="evenodd" clip-rule="evenodd" d="M1516.25 746.875C1516.25 733.068 1527.44 721.875 1541.25 721.875C1555.06 721.875 1566.25 733.068 1566.25 746.875V771.875H1541.25C1527.44 771.875 1516.25 760.682 1516.25 746.875ZM1541.25 734.375C1534.35 734.375 1528.75 739.971 1528.75 746.875C1528.75 753.779 1534.35 759.375 1541.25 759.375H1553.75V746.875C1553.75 739.971 1548.15 734.375 1541.25 734.375Z" fill="#7766FF"/>
<path fill-rule="evenodd" clip-rule="evenodd" d="M1553.75 746.875C1553.75 733.068 1564.94 721.875 1578.75 721.875C1592.56 721.875 1603.75 733.068 1603.75 746.875C1603.75 760.682 1592.56 771.875 1578.75 771.875H1553.75V746.875ZM1578.75 734.375C1571.85 734.375 1566.25 739.971 1566.25 746.875V759.375H1578.75C1585.65 759.375 1591.25 753.779 1591.25 746.875C1591.25 739.971 1585.65 734.375 1578.75 734.375Z" fill="#7766FF"/>
<path fill-rule="evenodd" clip-rule="evenodd" d="M1497.5 790.625C1500.95 790.625 1503.75 793.423 1503.75 796.875V860C1503.75 861.726 1505.15 863.125 1506.88 863.125H1613.12C1614.85 863.125 1616.25 861.726 1616.25 860V796.875C1616.25 793.423 1619.05 790.625 1622.5 790.625C1625.95 790.625 1628.75 793.423 1628.75 796.875V860C1628.75 868.629 1621.75 875.625 1613.12 875.625H1506.88C1498.25 875.625 1491.25 868.629 1491.25 860V796.875C1491.25 793.423 1494.05 790.625 1497.5 790.625Z" fill="#7766FF"/>
<path fill-rule="evenodd" clip-rule="evenodd" d="M1553.75 868.75V762.5H1566.25V868.75H1553.75Z" fill="#7766FF"/>
<path fill-rule="evenodd" clip-rule="evenodd" d="M1504.76 1079.89C1494.99 1089.65 1494.99 1105.48 1504.76 1115.24C1514.52 1125.01 1530.35 1125.01 1540.11 1115.24L1551.16 1104.19L1515.81 1068.84L1504.76 1079.89ZM1524.64 1060L1560 1095.36L1595.36 1060L1560 1024.64L1524.64 1060ZM1568.84 1015.81L1604.19 1051.16L1615.24 1040.11C1625.01 1030.35 1625.01 1014.52 1615.24 1004.76C1605.48 994.994 1589.65 994.994 1579.89 1004.76L1568.84 1015.81ZM1495.92 1124.08C1481.27 1109.44 1481.27 1085.69 1495.92 1071.05L1571.05 995.918C1585.69 981.274 1609.44 981.274 1624.08 995.918C1638.73 1010.56 1638.73 1034.31 1624.08 1048.95L1548.95 1124.08C1534.31 1138.73 1510.56 1138.73 1495.92 1124.08Z" fill="#AA55EE"/>
<path d="M1551.16 1055.58C1553.6 1058.02 1553.6 1061.98 1551.16 1064.42C1548.72 1066.86 1544.76 1066.86 1542.32 1064.42C1539.88 1061.98 1539.88 1058.02 1542.32 1055.58C1544.76 1053.14 1548.72 1053.14 1551.16 1055.58Z" fill="#AA55EE"/>
<path d="M1564.42 1042.32C1566.86 1044.76 1566.86 1048.72 1564.42 1051.16C1561.98 1053.6 1558.02 1053.6 1555.58 1051.16C1553.14 1048.72 1553.14 1044.76 1555.58 1042.32C1558.02 1039.88 1561.98 1039.88 1564.42 1042.32Z" fill="#AA55EE"/>
<path d="M1564.42 1068.84C1566.86 1071.28 1566.86 1075.24 1564.42 1077.68C1561.98 1080.12 1558.02 1080.12 1555.58 1077.68C1553.14 1075.24 1553.14 1071.28 1555.58 1068.84C1558.02 1066.4 1561.98 1066.4 1564.42 1068.84Z" fill="#AA55EE"/>
<path d="M1577.68 1055.58C1580.12 1058.02 1580.12 1061.98 1577.68 1064.42C1575.24 1066.86 1571.28 1066.86 1568.84 1064.42C1566.4 1061.98 1566.4 1058.02 1568.84 1055.58C1571.28 1053.14 1575.24 1053.14 1577.68 1055.58Z" fill="#AA55EE"/>
<path fill-rule="evenodd" clip-rule="evenodd" d="M60 -45.625C23.7563 -45.625 -5.625 -16.2437 -5.625 20C-5.625 56.2437 23.7563 85.625 60 85.625C96.2437 85.625 125.625 56.2437 125.625 20C125.625 -16.2437 96.2437 -45.625 60 -45.625ZM-18.125 20C-18.125 -23.1472 16.8528 -58.125 60 -58.125C103.147 -58.125 138.125 -23.1472 138.125 20C138.125 63.1472 103.147 98.125 60 98.125C16.8528 98.125 -18.125 63.1472 -18.125 20Z" fill="#EE2244"/>
<path d="M44.375 5.9375C44.375 11.9781 39.4781 16.875 33.4375 16.875C27.3969 16.875 22.5 11.9781 22.5 5.9375C22.5 -0.103114 27.3969 -5 33.4375 -5C39.4781 -5 44.375 -0.103114 44.375 5.9375Z" fill="#EE2244"/>
<path d="M97.5 5.9375C97.5 11.9781 92.6031 16.875 86.5625 16.875C80.5219 16.875 75.625 11.9781 75.625 5.9375C75.625 -0.103114 80.5219 -5 86.5625 -5C92.6031 -5 97.5 -0.103114 97.5 5.9375Z" fill="#EE2244"/>
<path fill-rule="evenodd" clip-rule="evenodd" d="M24.6445 40.2666C27.0853 37.8258 31.0426 37.8258 33.4834 40.2666C40.516 47.2992 50.0543 51.2501 59.9999 51.2501C69.9455 51.2501 79.4838 47.2992 86.5164 40.2666C88.9572 37.8258 92.9144 37.8258 95.3552 40.2666C97.796 42.7074 97.796 46.6647 95.3552 49.1055C85.9784 58.4823 73.2607 63.7501 59.9999 63.7501C46.7391 63.7501 34.0214 58.4823 24.6445 49.1055C22.2038 46.6647 22.2038 42.7074 24.6445 40.2666Z" fill="#EE2244"/>
<path fill-rule="evenodd" clip-rule="evenodd" d="M66.25 205C69.7018 205 72.5 207.798 72.5 211.25V255H119.375C122.827 255 125.625 257.798 125.625 261.25C125.625 264.702 122.827 267.5 119.375 267.5H72.5C65.5964 267.5 60 261.904 60 255V211.25C60 207.798 62.7982 205 66.25 205Z" fill="#FF8844"/>
<path d="M3.75 226.875C3.75 219.971 9.34644 214.375 16.25 214.375H62.7902C67.4747 214.375 71.9894 216.128 75.4458 219.29L110.156 251.042C114.039 254.594 116.25 259.614 116.25 264.877V289.375C120.579 289.375 124.771 289.962 128.75 291.06V264.877C128.75 256.106 125.064 247.739 118.593 241.819L83.8829 210.067C78.1222 204.797 70.5976 201.875 62.7902 201.875H16.25C2.44288 201.875 -8.75 213.068 -8.75 226.875V333.125C-8.75 346.932 2.44288 358.125 16.25 358.125H74.7815C72.7324 354.248 71.2109 350.05 70.3127 345.625H16.25C9.34644 345.625 3.75 340.029 3.75 333.125V226.875Z" fill="#FF8844"/>
<path fill-rule="evenodd" clip-rule="evenodd" d="M116.25 298.75C95.5393 298.75 78.75 315.539 78.75 336.25C78.75 356.961 95.5393 373.75 116.25 373.75C136.961 373.75 153.75 356.961 153.75 336.25C153.75 315.539 136.961 298.75 116.25 298.75ZM116.25 314.375C117.976 314.375 119.375 315.774 119.375 317.5V333.125H135C136.726 333.125 138.125 334.524 138.125 336.25C138.125 337.976 136.726 339.375 135 339.375H119.375V355C119.375 356.726 117.976 358.125 116.25 358.125C114.524 358.125 113.125 356.726 113.125 355V339.375H97.5C95.7741 339.375 94.375 337.976 94.375 336.25C94.375 334.524 95.7741 333.125 97.5 333.125H113.125V317.5C113.125 315.774 114.524 314.375 116.25 314.375Z" fill="#FF8844"/>
<path d="M75.625 583.75C75.625 592.379 68.6294 599.375 60 599.375C51.3706 599.375 44.375 592.379 44.375 583.75C44.375 575.121 51.3706 568.125 60 568.125C68.6294 568.125 75.625 575.121 75.625 583.75Z" fill="#FFCC00"/>
<path fill-rule="evenodd" clip-rule="evenodd" d="M59.9999 549.375C54.2545 549.375 48.5655 550.507 43.2575 552.705C37.9495 554.904 33.1265 558.127 29.0639 562.189C26.6232 564.63 22.6659 564.63 20.2251 562.189C17.7843 559.748 17.7843 555.791 20.2251 553.35C25.4484 548.127 31.6494 543.984 38.4739 541.157C45.2985 538.33 52.613 536.875 59.9999 536.875C67.3867 536.875 74.7013 538.33 81.5258 541.157C88.3504 543.984 94.5514 548.127 99.7746 553.35C102.215 555.791 102.215 559.748 99.7746 562.189C97.3339 564.63 93.3766 564.63 90.9358 562.189C86.8732 558.127 82.0503 554.904 76.7423 552.705C71.4343 550.507 65.7452 549.375 59.9999 549.375Z" fill="#FFCC00"/>
<path fill-rule="evenodd" clip-rule="evenodd" d="M60 518.125C50.1509 518.125 40.3982 520.065 31.2988 523.834C22.1994 527.603 13.9314 533.128 6.96703 540.092C4.52625 542.533 0.568967 542.533 -1.87181 540.092C-4.31259 537.651 -4.31259 533.694 -1.87181 531.253C6.25332 523.128 15.8992 516.683 26.5152 512.286C37.1312 507.888 48.5094 505.625 60 505.625C71.4907 505.625 82.8689 507.888 93.4849 512.286C104.101 516.683 113.747 523.128 121.872 531.253C124.313 533.694 124.313 537.651 121.872 540.092C119.431 542.533 115.474 542.533 113.033 540.092C106.069 533.128 97.8007 527.603 88.7013 523.834C79.6019 520.065 69.8492 518.125 60 518.125Z" fill="#FFCC00"/>
<path fill-rule="evenodd" clip-rule="evenodd" d="M60 486.875C46.047 486.875 32.2307 489.623 19.3398 494.963C6.449 500.302 -5.26392 508.129 -15.1301 517.995C-17.5709 520.436 -21.5282 520.436 -23.969 517.995C-26.4098 515.554 -26.4098 511.597 -23.969 509.156C-12.942 498.129 0.148883 489.382 14.5563 483.414C28.9637 477.447 44.4055 474.375 60 474.375C75.5944 474.375 91.0362 477.447 105.444 483.414C119.851 489.382 132.942 498.129 143.969 509.156C146.41 511.597 146.41 515.554 143.969 517.995C141.528 520.436 137.571 520.436 135.13 517.995C125.264 508.129 113.551 500.302 100.66 494.963C87.7692 489.623 73.9529 486.875 60 486.875Z" fill="#FFCC00"/>
<path d="M128.75 750C128.75 739.645 120.355 731.25 110 731.25H10C-0.35534 731.25 -8.75 739.645 -8.75 750V756.25H128.75V750Z" fill="#AACF3B"/>
<path fill-rule="evenodd" clip-rule="evenodd" d="M-15 750C-15 736.193 -3.80712 725 10 725H110C123.807 725 135 736.193 135 750V850C135 863.807 123.807 875 110 875H10C-3.80712 875 -15 863.807 -15 850V750ZM10 737.5C3.09644 737.5 -2.5 743.096 -2.5 750H122.5C122.5 743.096 116.904 737.5 110 737.5H10ZM122.5 762.5H-2.5V850C-2.5 856.904 3.09644 862.5 10 862.5H110C116.904 862.5 122.5 856.904 122.5 850V762.5Z" fill="#AACF3B"/>
<path fill-rule="evenodd" clip-rule="evenodd" d="M38.125 756.25C41.5768 756.25 44.375 759.048 44.375 762.5V868.75C44.375 872.202 41.5768 875 38.125 875C34.6732 875 31.875 872.202 31.875 868.75V762.5C31.875 759.048 34.6732 756.25 38.125 756.25ZM81.875 756.25C85.3268 756.25 88.125 759.048 88.125 762.5V868.75C88.125 872.202 85.3268 875 81.875 875C78.4232 875 75.625 872.202 75.625 868.75V762.5C75.625 759.048 78.4232 756.25 81.875 756.25Z" fill="#AACF3B"/>
<path fill-rule="evenodd" clip-rule="evenodd" d="M28.75 757.812C31.3388 757.812 33.4375 759.911 33.4375 762.5V818.75C33.4375 819.613 34.1371 820.312 35 820.312H41.25C42.1129 820.312 42.8125 819.613 42.8125 818.75V762.5C42.8125 759.911 44.9112 757.812 47.5 757.812C50.0888 757.812 52.1875 759.911 52.1875 762.5V818.75C52.1875 824.791 47.2906 829.688 41.25 829.688H35C28.9594 829.688 24.0625 824.791 24.0625 818.75V762.5C24.0625 759.911 26.1612 757.812 28.75 757.812ZM72.5 757.812C75.0888 757.812 77.1875 759.911 77.1875 762.5V818.75C77.1875 819.613 77.8871 820.312 78.75 820.312H85C85.8629 820.312 86.5625 819.613 86.5625 818.75V762.5C86.5625 759.911 88.6612 757.812 91.25 757.812C93.8388 757.812 95.9375 759.911 95.9375 762.5V818.75C95.9375 824.791 91.0406 829.688 85 829.688H78.75C72.7094 829.688 67.8125 824.791 67.8125 818.75V762.5C67.8125 759.911 69.9112 757.812 72.5 757.812Z" fill="#AACF3B"/>
<path fill-rule="evenodd" clip-rule="evenodd" d="M43.8636 1012.18C24.9827 1024.07 4.37133 1042.21 -9.79975 1063.47C-11.7145 1066.34 -15.5949 1067.12 -18.4669 1065.2C-21.339 1063.29 -22.1151 1059.41 -20.2004 1056.53C-4.86659 1033.53 17.1458 1014.23 37.2006 1001.6C47.2341 995.278 56.9805 990.496 65.367 987.768C69.5562 986.405 73.5747 985.499 77.2243 985.234C80.7905 984.975 84.5472 985.286 87.795 986.91C93.3112 989.668 96.496 994.267 96.8973 1000.03C97.253 1005.14 95.3652 1010.44 92.877 1015.3C87.8469 1025.11 78.4929 1036.52 69.096 1047.45C66.7543 1050.17 64.4027 1052.87 62.0846 1055.53C54.85 1063.83 47.9412 1071.76 42.6743 1078.84C39.2004 1083.51 36.7215 1087.45 35.3773 1090.58C34.8736 1091.75 34.6056 1092.63 34.4666 1093.27C36.2139 1092.91 38.7477 1092.01 42.1131 1090.44C49.7682 1086.88 59.5626 1080.9 69.9963 1074.54L70.4487 1074.26C80.8319 1067.93 91.7972 1061.25 100.985 1056.99C105.552 1054.87 110.09 1053.15 114.145 1052.46C117.961 1051.82 123.15 1051.81 126.919 1055.58C130.239 1058.9 130.925 1063.12 130.333 1066.92C129.78 1070.47 128.097 1073.99 126.162 1077.18C122.265 1083.61 116.053 1090.72 110.137 1097.22C108.659 1098.85 107.2 1100.43 105.781 1101.97C101.308 1106.83 97.2344 1111.26 94.242 1115.07C92.8913 1116.79 91.936 1118.16 91.3143 1119.22C92.6667 1119.7 94.6135 1119.92 97.3957 1119.61C101.784 1119.12 106.992 1117.44 112.225 1115.19C117.389 1112.98 122.234 1110.37 125.814 1108.3C127.595 1107.27 129.045 1106.38 130.041 1105.76C130.538 1105.44 130.922 1105.2 131.176 1105.03L131.457 1104.85L131.522 1104.81L131.533 1104.8C134.405 1102.89 138.286 1103.66 140.2 1106.53C142.115 1109.41 141.339 1113.29 138.467 1115.2L135 1110C138.467 1115.2 138.468 1115.2 138.467 1115.2L138.424 1115.23L138.327 1115.29L137.976 1115.52C137.674 1115.72 137.24 1116 136.688 1116.34C135.584 1117.04 134.006 1118 132.077 1119.12C128.235 1121.34 122.924 1124.21 117.149 1126.68C111.445 1129.13 104.935 1131.35 98.7761 1132.03C92.7464 1132.7 85.6864 1132.03 80.5805 1126.92C76.6947 1123.03 78.1348 1118.02 79.1256 1115.66C80.2755 1112.93 82.2823 1110.05 84.416 1107.34C87.7379 1103.12 92.2922 1098.17 96.8492 1093.22C98.2075 1091.74 99.5661 1090.27 100.892 1088.81C106.888 1082.22 112.293 1075.95 115.474 1070.7C117.078 1068.06 117.798 1066.17 117.982 1064.99C118.004 1064.85 118.016 1064.73 118.022 1064.64C117.676 1064.62 117.105 1064.64 116.226 1064.79C113.82 1065.2 110.478 1066.37 106.246 1068.33C97.836 1072.23 87.5281 1078.48 76.9583 1084.93C76.6566 1085.11 76.3547 1085.3 76.0525 1085.48C65.9881 1091.62 55.6933 1097.9 47.3917 1101.77C43.1818 1103.73 38.9062 1105.36 35.1375 1105.82C31.4375 1106.27 25.872 1105.72 23.1598 1100.3C20.6729 1095.32 22.0872 1089.84 23.8935 1085.64C25.8181 1081.16 28.9877 1076.3 32.6447 1071.38C38.2282 1063.87 45.6025 1055.41 52.9173 1047.02C55.1755 1044.43 57.428 1041.84 59.6205 1039.29C69.1679 1028.2 77.511 1017.87 81.7537 1009.59C83.902 1005.4 84.5446 1002.58 84.4275 1000.9C84.3561 999.872 84.0649 999.02 82.2049 998.09C81.7645 997.87 80.5522 997.525 78.1311 997.701C75.7932 997.871 72.806 998.493 69.2338 999.655C62.0973 1001.98 53.2979 1006.23 43.8636 1012.18ZM118.476 1064.7C118.476 1064.7 118.468 1064.7 118.455 1064.7ZM90.4618 1121.04C90.4589 1121.04 90.4654 1121 90.49 1120.93C90.477 1121 90.4647 1121.04 90.4618 1121.04ZM32.82 1093.46C32.8204 1093.46 32.8286 1093.46 32.8436 1093.46Z" fill="#00CC66"/>
<path fill-rule="evenodd" clip-rule="evenodd" d="M348.791 -55.785C353.376 -65.0756 366.624 -65.0756 371.209 -55.785L389.866 -17.9822L431.584 -11.9202C441.837 -10.4304 445.931 2.16924 438.512 9.40096L408.324 38.8264L415.451 80.3757C417.202 90.587 406.484 98.374 397.314 93.5529L360 73.936L322.686 93.5529C313.516 98.374 302.798 90.587 304.55 80.3757L311.676 38.8264L281.488 9.40097C274.07 2.16927 278.163 -10.4304 288.416 -11.9202L330.134 -17.9822L348.791 -55.785ZM378.657 -12.4501L360 -50.2529L341.343 -12.4501C339.522 -8.7608 336.003 -6.20368 331.932 -5.61208L290.214 0.449881L320.401 29.8753C323.347 32.747 324.691 36.8845 323.996 40.9394L316.87 82.4888L354.183 62.8718C357.825 60.9573 362.175 60.9574 365.817 62.8718L403.13 82.4887L396.004 40.9394C395.309 36.8845 396.653 32.747 399.599 29.8753L429.786 0.449881L388.069 -5.61208C383.997 -6.20368 380.478 -8.76081 378.657 -12.4501Z" fill="#FF8844"/>
<path fill-rule="evenodd" clip-rule="evenodd" d="M285 272.361C285 234.22 319.07 205 360 205C379.721 205 398.514 208.751 412.489 219.412C426.782 230.316 435 247.636 435 272.361C435 289.201 426.459 302.968 415.368 312.849C415.772 314.681 415.987 316.609 415.981 318.63C415.949 329.647 409.332 341.483 395.317 353.495C392.697 355.742 388.751 355.438 386.505 352.817C384.258 350.197 384.562 346.251 387.183 344.005C397.813 334.893 402.047 327.325 403.161 321.691C400.418 323.293 397.65 324.682 394.927 325.849C388.604 328.559 381.972 330.328 375.874 330.661C320.085 338.509 285 307.848 285 272.361ZM354.445 319.355C316.656 317.836 297.5 294.343 297.5 272.361C297.5 242.475 324.54 217.5 360 217.5C378.473 217.5 394.056 221.072 404.907 229.35C415.44 237.385 422.5 250.621 422.5 272.361C422.5 283.572 417.197 293.488 409.488 301.238C407.066 298.399 404.135 296.037 400.997 294.189C392.863 289.399 382.524 287.495 373.485 289.47C364.137 291.512 355.769 297.921 353.835 309.528C353.259 312.983 353.401 316.331 354.445 319.355ZM399.782 309.11C398.409 307.55 396.683 306.156 394.654 304.96C389.007 301.634 381.866 300.434 376.153 301.682C370.749 302.863 367.095 306.002 366.165 311.583C365.72 314.25 366.256 315.469 366.627 316.005C367.029 316.583 367.932 317.357 369.999 317.834C371.375 318.151 373.041 318.278 374.937 318.192C379.071 318.005 384.298 316.804 390.003 314.36C393.338 312.93 396.638 311.168 399.782 309.11Z" fill="#FFCC00"/>
<path fill-rule="evenodd" clip-rule="evenodd" d="M322.5 530.625C315.596 530.625 310 536.221 310 543.125V593.125C310 600.029 315.596 605.625 322.5 605.625H397.5C404.404 605.625 410 600.029 410 593.125V543.125C410 536.221 404.404 530.625 397.5 530.625H322.5ZM297.5 543.125C297.5 529.318 308.693 518.125 322.5 518.125H397.5C411.307 518.125 422.5 529.318 422.5 543.125V593.125C422.5 606.932 411.307 618.125 397.5 618.125H322.5C308.693 618.125 297.5 606.932 297.5 593.125V543.125Z" fill="#AACF3B"/>
<path fill-rule="evenodd" clip-rule="evenodd" d="M360 472.5C346.193 472.5 335 483.693 335 497.5V528.75H322.5V497.5C322.5 476.789 339.289 460 360 460C380.711 460 397.5 476.789 397.5 497.5V528.75H385V497.5C385 483.693 373.807 472.5 360 472.5Z" fill="#AACF3B"/>
<path d="M347.5 561.875C347.5 554.971 353.096 549.375 360 549.375C366.904 549.375 372.5 554.971 372.5 561.875C372.5 563.517 372.177 565.142 371.548 566.659C370.92 568.175 370 569.553 368.839 570.714C367.678 571.875 366.3 572.795 364.784 573.423L366.25 586.875H353.75L355.216 573.423C353.7 572.795 352.322 571.875 351.161 570.714C350 569.553 349.08 568.175 348.452 566.659C347.823 565.142 347.5 563.517 347.5 561.875Z" fill="#AACF3B"/>
<path d="M338.125 756.25H356.875L366.25 812.5L347.5 818.75L338.125 756.25Z" fill="#00CC66"/>
<path fill-rule="evenodd" clip-rule="evenodd" d="M333.714 750.184C334.996 749.252 336.54 748.75 338.125 748.75H410C414.142 748.75 417.5 752.108 417.5 756.25C417.5 760.392 414.142 763.75 410 763.75H365.728L372.312 803.254L414.431 792.724C418.449 791.719 422.521 794.163 423.526 798.181C424.531 802.199 422.087 806.271 418.069 807.276L368.348 819.706L353.9 824.522L342.321 876.627C341.423 880.67 337.416 883.22 333.373 882.321C329.329 881.423 326.78 877.417 327.679 873.373L339.876 818.484L332.541 769.585L313.299 783.579L322.958 802.896C324.811 806.601 323.309 811.106 319.604 812.958C315.899 814.811 311.394 813.309 309.542 809.604L297.042 784.604C295.402 781.325 296.374 777.341 299.339 775.184L333.714 750.184ZM346.834 763.75L353.593 808.813L357.798 807.411L350.521 763.75H346.834Z" fill="#00CC66"/>
<path d="M363.125 728.125C363.125 736.754 356.129 743.75 347.5 743.75C338.871 743.75 331.875 736.754 331.875 728.125C331.875 719.496 338.871 712.5 347.5 712.5C356.129 712.5 363.125 719.496 363.125 728.125Z" fill="#00CC66"/>
<path fill-rule="evenodd" clip-rule="evenodd" d="M347.5 991.25C344.048 991.25 341.25 994.048 341.25 997.5C341.25 1000.95 344.048 1003.75 347.5 1003.75H372.5C375.952 1003.75 378.75 1000.95 378.75 997.5C378.75 994.048 375.952 991.25 372.5 991.25H347.5ZM390.183 991.25C387.609 983.968 380.664 978.75 372.5 978.75H347.5C339.336 978.75 332.391 983.968 329.817 991.25H313.125C302.77 991.25 294.375 999.645 294.375 1010V1119.38C294.375 1129.73 302.77 1138.12 313.125 1138.12H406.875C417.23 1138.12 425.625 1129.73 425.625 1119.38V1010C425.625 999.645 417.23 991.25 406.875 991.25H390.183ZM390.183 1003.75C387.609 1011.03 380.664 1016.25 372.5 1016.25H347.5C339.336 1016.25 332.391 1011.03 329.817 1003.75H313.125C309.673 1003.75 306.875 1006.55 306.875 1010V1119.38C306.875 1122.83 309.673 1125.62 313.125 1125.62H406.875C410.327 1125.62 413.125 1122.83 413.125 1119.38V1010C413.125 1006.55 410.327 1003.75 406.875 1003.75H390.183Z" fill="#11CCBB"/>
<path fill-rule="evenodd" clip-rule="evenodd" d="M1210 997.5C1203.1 997.5 1197.5 1003.1 1197.5 1010V1110C1197.5 1116.9 1203.1 1122.5 1210 1122.5H1310C1316.9 1122.5 1322.5 1116.9 1322.5 1110V1010C1322.5 1003.1 1316.9 997.5 1310 997.5H1210ZM1185 1010C1185 996.193 1196.19 985 1210 985H1310C1323.81 985 1335 996.193 1335 1010V1110C1335 1123.81 1323.81 1135 1310 1135H1210C1196.19 1135 1185 1123.81 1185 1110V1010Z" fill="#7766FF"/>
<path d="M1227.3 1046.18L1192.92 1083.2C1191.85 1084.36 1191.25 1085.88 1191.25 1087.45V1110C1191.25 1120.36 1199.64 1128.75 1210 1128.75H1310C1320.36 1128.75 1328.75 1120.36 1328.75 1110V1093.84C1328.75 1092.18 1328.09 1090.59 1326.92 1089.42L1301.92 1064.42C1299.48 1061.98 1295.52 1061.98 1293.08 1064.42L1277.09 1080.41C1274.58 1082.92 1270.5 1082.84 1268.09 1080.25L1236.45 1046.18C1233.98 1043.52 1229.77 1043.52 1227.3 1046.18Z" fill="#7766FF"/>
<path fill-rule="evenodd" clip-rule="evenodd" d="M1222.72 1041.93C1227.66 1036.6 1236.09 1036.6 1241.03 1041.93L1236.45 1046.18M1263.51 1084.5L1231.87 1050.44L1197.5 1087.45V1110C1197.5 1116.9 1203.1 1122.5 1210 1122.5H1310C1316.9 1122.5 1322.5 1116.9 1322.5 1110V1093.84L1297.5 1068.84L1281.51 1084.83C1276.5 1089.84 1268.33 1089.69 1263.51 1084.5ZM1241.03 1041.93L1272.67 1075.99L1288.66 1060C1293.54 1055.12 1301.46 1055.12 1306.34 1060L1331.34 1085C1333.68 1087.34 1335 1090.52 1335 1093.84V1110C1335 1123.81 1323.81 1135 1310 1135H1210C1196.19 1135 1185 1123.81 1185 1110V1087.45C1185 1084.3 1186.19 1081.26 1188.34 1078.95L1222.72 1041.93" fill="#7766FF"/>
<path d="M1236.45 1046.18L1241.03 1041.93L1222.72 1041.93L1236.45 1046.18Z" fill="#7766FF"/>
<path fill-rule="evenodd" clip-rule="evenodd" d="M622.771 1003.75C617.018 1003.75 612.009 1007.68 610.634 1013.26L591.069 1092.74C590.244 1096.1 586.858 1098.14 583.506 1097.32C580.154 1096.49 578.106 1093.11 578.931 1089.76L598.496 1010.27C601.246 999.103 611.266 991.25 622.771 991.25H697.229C708.734 991.25 718.754 999.103 721.504 1010.27L741.069 1089.76C741.894 1093.11 739.846 1096.49 736.494 1097.32C733.142 1098.14 729.756 1096.1 728.931 1092.74L709.366 1013.26C707.991 1007.68 702.981 1003.75 697.229 1003.75H622.771Z" fill="#44BBFF"/>
<path fill-rule="evenodd" clip-rule="evenodd" d="M613.125 1072.5C601.044 1072.5 591.25 1082.29 591.25 1094.38C591.25 1106.46 601.044 1116.25 613.125 1116.25H706.875C718.956 1116.25 728.75 1106.46 728.75 1094.38C728.75 1082.29 718.956 1072.5 706.875 1072.5H613.125ZM578.75 1094.38C578.75 1075.39 594.14 1060 613.125 1060H706.875C725.86 1060 741.25 1075.39 741.25 1094.38C741.25 1113.36 725.86 1128.75 706.875 1128.75H613.125C594.14 1128.75 578.75 1113.36 578.75 1094.38Z" fill="#44BBFF"/>
<path fill-rule="evenodd" clip-rule="evenodd" d="M953.902 994.655C920.517 997.73 894.375 1025.81 894.375 1060C894.375 1096.24 923.756 1125.62 960 1125.62C996.244 1125.62 1025.62 1096.24 1025.62 1060C1025.62 1057.85 1025.52 1055.72 1025.32 1053.62C1024.39 1053.71 1023.45 1053.75 1022.5 1053.75C1007.38 1053.75 994.768 1043.01 991.874 1028.74C991.666 1028.75 991.458 1028.75 991.25 1028.75C971.687 1028.75 955.623 1013.77 953.902 994.655ZM881.875 1060C881.875 1016.85 916.853 981.875 960 981.875L960.167 981.875C961.93 981.879 963.609 982.627 964.791 983.935C965.973 985.242 966.548 986.989 966.374 988.743C966.292 989.566 966.25 990.402 966.25 991.25C966.25 1005.06 977.443 1016.25 991.25 1016.25C992.973 1016.25 994.648 1016.08 996.263 1015.75C998.128 1015.37 1000.06 1015.86 1001.52 1017.08C1002.98 1018.3 1003.8 1020.12 1003.76 1022.03C1003.75 1022.18 1003.75 1022.34 1003.75 1022.5C1003.75 1032.86 1012.14 1041.25 1022.5 1041.25C1024.62 1041.25 1026.65 1040.9 1028.54 1040.26C1030.24 1039.68 1032.12 1039.86 1033.68 1040.77C1035.24 1041.67 1036.34 1043.21 1036.68 1044.98C1037.63 1049.85 1038.12 1054.87 1038.12 1060C1038.12 1103.15 1003.15 1138.12 960 1138.12C916.853 1138.12 881.875 1103.15 881.875 1060Z" fill="#0077FF"/>
<path d="M941.25 1031.88C941.25 1037.05 937.053 1041.25 931.875 1041.25C926.697 1041.25 922.5 1037.05 922.5 1031.88C922.5 1026.7 926.697 1022.5 931.875 1022.5C937.053 1022.5 941.25 1026.7 941.25 1031.88Z" fill="#0077FF"/>
<path d="M928.75 1069.38C928.75 1074.55 924.553 1078.75 919.375 1078.75C914.197 1078.75 910 1074.55 910 1069.38C910 1064.2 914.197 1060 919.375 1060C924.553 1060 928.75 1064.2 928.75 1069.38Z" fill="#0077FF"/>
<path d="M966.25 1063.12C966.25 1068.3 962.053 1072.5 956.875 1072.5C951.697 1072.5 947.5 1068.3 947.5 1063.12C947.5 1057.95 951.697 1053.75 956.875 1053.75C962.053 1053.75 966.25 1057.95 966.25 1063.12Z" fill="#0077FF"/>
<path d="M1003.75 1075.62C1003.75 1080.8 999.553 1085 994.375 1085C989.197 1085 985 1080.8 985 1075.62C985 1070.45 989.197 1066.25 994.375 1066.25C999.553 1066.25 1003.75 1070.45 1003.75 1075.62Z" fill="#0077FF"/>
<path fill-rule="evenodd" clip-rule="evenodd" d="M1805.36 55.4668C1816.19 46.7994 1822.5 33.6771 1822.5 19.8026V4.59709L1810.71 -7.19306C1810.24 -4.44841 1810 -1.62761 1810 1.25V19.8026C1810 29.8798 1805.42 39.4107 1797.55 45.7059C1787.48 53.7615 1793.18 70 1806.07 70H1828.85C1830.12 86.09 1843.58 98.75 1860 98.75C1875.42 98.75 1888.24 87.5777 1890.79 72.8849L1887.9 70L1879.23 61.332L1875.4 57.5H1835H1806.07C1805.69 57.5 1805.51 57.3971 1805.39 57.3132C1805.25 57.203 1805.09 57.0093 1804.99 56.7362C1804.9 56.4631 1804.9 56.2138 1804.95 56.0363C1804.98 55.9012 1805.06 55.7047 1805.36 55.4668ZM1860 86.25C1850.49 86.25 1842.64 79.1734 1841.42 70H1878.58C1877.36 79.1734 1869.51 86.25 1860 86.25Z" fill="#44BBFF"/>
<path d="M1897.5 1.25V19.8026C1897.5 26.9812 1899.19 33.9584 1902.32 40.2214L1925.58 63.4797C1928.84 58.0465 1928.39 50.4545 1922.45 45.7059C1914.58 39.4107 1910 29.8798 1910 19.8026V1.25C1910 -19.8068 1896.98 -37.8234 1878.56 -45.1927C1877.25 -54.2723 1869.44 -61.25 1860 -61.25C1850.56 -61.25 1842.75 -54.2723 1841.44 -45.1927C1835.84 -42.9536 1830.74 -39.7313 1826.36 -35.7395L1835.21 -26.8875C1841.82 -32.7147 1850.5 -36.25 1860 -36.25C1880.71 -36.25 1897.5 -19.4607 1897.5 1.25Z" fill="#44BBFF"/>
<path fill-rule="evenodd" clip-rule="evenodd" d="M1780.58 -59.4194C1783.02 -61.8602 1786.98 -61.8602 1789.42 -59.4194L1939.42 90.5806C1941.86 93.0214 1941.86 96.9786 1939.42 99.4194C1936.98 101.86 1933.02 101.86 1930.58 99.4194L1780.58 -50.5806C1778.14 -53.0214 1778.14 -56.9786 1780.58 -59.4194Z" fill="#44BBFF"/>
<path fill-rule="evenodd" clip-rule="evenodd" d="M1922.5 226.24C1922.5 218.721 1915.91 212.903 1908.45 213.836L1845.95 221.649C1839.69 222.43 1835 227.748 1835 234.052V241.67L1922.5 230.732V226.24ZM1922.5 243.33L1835 254.267V326.875C1835 342.408 1822.41 355 1806.88 355H1805.32C1790.65 355 1778.75 343.104 1778.75 328.429C1778.75 312.26 1793.07 299.839 1809.08 302.126L1822.5 304.044V234.052C1822.5 221.444 1831.89 210.809 1844.4 209.245L1906.9 201.433C1921.82 199.567 1935 211.202 1935 226.24V314.375C1935 329.908 1922.41 342.5 1906.88 342.5H1905.32C1890.65 342.5 1878.75 330.604 1878.75 315.929C1878.75 299.76 1893.07 287.339 1909.08 289.626L1922.5 291.544V243.33ZM1922.5 304.17L1907.31 302C1898.83 300.79 1891.25 307.367 1891.25 315.929C1891.25 323.7 1897.55 330 1905.32 330H1906.88C1915.5 330 1922.5 323.004 1922.5 314.375V304.17ZM1822.5 316.67L1807.31 314.5C1798.83 313.29 1791.25 319.867 1791.25 328.429C1791.25 336.2 1797.55 342.5 1805.32 342.5H1806.88C1815.5 342.5 1822.5 335.504 1822.5 326.875V316.67Z" fill="#0077FF"/>
<path fill-rule="evenodd" clip-rule="evenodd" d="M1916.25 558.75C1895.54 558.75 1878.75 575.539 1878.75 596.25C1878.75 616.961 1895.54 633.75 1916.25 633.75C1936.96 633.75 1953.75 616.961 1953.75 596.25C1953.75 575.539 1936.96 558.75 1916.25 558.75ZM1916.25 574.375C1917.98 574.375 1919.38 575.774 1919.38 577.5V593.125H1935C1936.73 593.125 1938.12 594.524 1938.12 596.25C1938.12 597.976 1936.73 599.375 1935 599.375H1919.38V615C1919.38 616.726 1917.98 618.125 1916.25 618.125C1914.52 618.125 1913.12 616.726 1913.12 615V599.375H1897.5C1895.77 599.375 1894.38 597.976 1894.38 596.25C1894.38 594.524 1895.77 593.125 1897.5 593.125H1913.12V577.5C1913.12 575.774 1914.52 574.375 1916.25 574.375Z" fill="#7766FF"/>
<path fill-rule="evenodd" clip-rule="evenodd" d="M1860 458.75C1884.16 458.75 1903.75 478.338 1903.75 502.5C1903.75 516.776 1896.91 529.455 1886.33 537.441C1893.89 540.329 1900.66 544.799 1906.24 550.445C1901.57 551.462 1897.16 553.175 1893.12 555.47C1885.7 549.692 1876.38 546.25 1866.25 546.25H1853.75C1829.59 546.25 1810 565.838 1810 590V602.5C1810 605.952 1812.8 608.75 1816.25 608.75H1871.06C1872.29 613.22 1874.17 617.422 1876.59 621.25H1816.25C1805.89 621.25 1797.5 612.855 1797.5 602.5V590C1797.5 566.009 1812.52 545.527 1833.67 537.441C1823.09 529.455 1816.25 516.776 1816.25 502.5C1816.25 478.338 1835.84 458.75 1860 458.75ZM1860 533.75C1877.26 533.75 1891.25 519.759 1891.25 502.5C1891.25 485.241 1877.26 471.25 1860 471.25C1842.74 471.25 1828.75 485.241 1828.75 502.5C1828.75 519.759 1842.74 533.75 1860 533.75Z" fill="#7766FF"/>
<path fill-rule="evenodd" clip-rule="evenodd" d="M1800.52 750.155C1797.75 752.336 1797.5 753.738 1797.5 754.167C1797.5 754.595 1797.75 755.998 1800.52 758.178C1803.22 760.303 1807.51 762.49 1813.36 764.442C1825.01 768.325 1841.5 770.833 1860 770.833C1878.5 770.833 1894.99 768.325 1906.64 764.442C1912.49 762.49 1916.78 760.303 1919.48 758.178C1922.25 755.998 1922.5 754.595 1922.5 754.167C1922.5 753.738 1922.25 752.336 1919.48 750.155C1916.78 748.03 1912.49 745.844 1906.64 743.891C1894.99 740.009 1878.5 737.5 1860 737.5C1841.5 737.5 1825.01 740.009 1813.36 743.891C1807.51 745.844 1803.22 748.03 1800.52 750.155ZM1922.5 771.139C1919.03 773.118 1914.99 774.834 1910.59 776.3C1897.36 780.712 1879.47 783.333 1860 783.333C1840.53 783.333 1822.64 780.712 1809.41 776.3C1805.01 774.834 1800.97 773.118 1797.5 771.139V784.722C1797.5 785.151 1797.75 786.553 1800.52 788.734C1803.22 790.858 1807.51 793.045 1813.36 794.997C1825.01 798.88 1841.5 801.389 1860 801.389C1878.5 801.389 1894.99 798.88 1906.64 794.997C1912.49 793.045 1916.78 790.858 1919.48 788.734C1922.25 786.553 1922.5 785.151 1922.5 784.722V771.139ZM1935 754.167C1935 748.267 1931.41 743.641 1927.22 740.338C1922.95 736.979 1917.17 734.228 1910.59 732.033C1897.36 727.621 1879.47 725 1860 725C1840.53 725 1822.64 727.621 1809.41 732.033C1802.83 734.228 1797.05 736.979 1792.78 740.338C1788.59 743.641 1785 748.267 1785 754.167V845.833C1785 851.733 1788.59 856.359 1792.78 859.662C1797.05 863.021 1802.83 865.772 1809.41 867.967C1822.64 872.379 1840.53 875 1860 875C1879.47 875 1897.36 872.379 1910.59 867.967C1917.17 865.772 1922.95 863.021 1927.22 859.662C1931.41 856.359 1935 851.733 1935 845.833V754.167ZM1922.5 801.695C1919.03 803.674 1914.99 805.389 1910.59 806.856C1897.36 811.268 1879.47 813.889 1860 813.889C1840.53 813.889 1822.64 811.268 1809.41 806.856C1805.01 805.389 1800.97 803.674 1797.5 801.695V815.278C1797.5 815.706 1797.75 817.109 1800.52 819.289C1803.22 821.414 1807.51 823.601 1813.36 825.553C1825.01 829.436 1841.5 831.944 1860 831.944C1878.5 831.944 1894.99 829.436 1906.64 825.553C1912.49 823.601 1916.78 821.414 1919.48 819.289C1922.25 817.109 1922.5 815.706 1922.5 815.278V801.695ZM1922.5 832.25C1919.03 834.229 1914.99 835.945 1910.59 837.412C1897.36 841.823 1879.47 844.444 1860 844.444C1840.53 844.444 1822.64 841.823 1809.41 837.412C1805.01 835.945 1800.97 834.229 1797.5 832.25V845.833C1797.5 846.262 1797.75 847.664 1800.52 849.845C1803.22 851.97 1807.51 854.156 1813.36 856.109C1825.01 859.991 1841.5 862.5 1860 862.5C1878.5 862.5 1894.99 859.991 1906.64 856.109C1912.49 854.156 1916.78 851.97 1919.48 849.845C1922.25 847.664 1922.5 846.262 1922.5 845.833V832.25Z" fill="#AA55EE"/>
<path fill-rule="evenodd" clip-rule="evenodd" d="M1860 994.375C1823.76 994.375 1794.38 1023.76 1794.38 1060C1794.38 1096.24 1823.76 1125.62 1860 1125.62C1896.24 1125.62 1925.62 1096.24 1925.62 1060C1925.62 1023.76 1896.24 994.375 1860 994.375ZM1781.88 1060C1781.88 1016.85 1816.85 981.875 1860 981.875C1903.15 981.875 1938.12 1016.85 1938.12 1060C1938.12 1103.15 1903.15 1138.12 1860 1138.12C1816.85 1138.12 1781.88 1103.15 1781.88 1060Z" fill="#DD44DD"/>
<path d="M1816.25 1036.91V1008.76C1816.25 1005.83 1818.28 1003.3 1821.14 1002.66L1870.33 991.731C1871.74 991.42 1873.2 991.6 1874.48 992.242L1878.67 994.334C1882.03 996.015 1883.16 1000.26 1881.07 1003.39L1874.51 1013.23C1873.27 1015.1 1873.12 1017.49 1874.12 1019.49L1885 1041.25L1868.71 1035.82C1867.13 1035.29 1865.42 1035.42 1863.93 1036.16L1858.6 1038.83C1855.82 1040.22 1854.48 1043.44 1855.46 1046.39L1858.58 1055.73C1859.43 1058.28 1861.81 1060 1864.5 1060H1875.41C1877.49 1060 1879.45 1061.04 1880.61 1062.78L1885.02 1069.4C1888.56 1074.72 1887.53 1081.85 1882.62 1085.94L1853.75 1110L1858.49 1095.78C1859.38 1093.1 1858.37 1090.17 1856.03 1088.6L1845.84 1081.81C1843.22 1080.06 1842.31 1076.63 1843.72 1073.82L1848.07 1065.1C1850.89 1059.46 1847.45 1052.7 1841.23 1051.66L1826.7 1049.24C1820.67 1048.24 1816.25 1043.02 1816.25 1036.91Z" fill="#DD44DD"/>
<path fill-rule="evenodd" clip-rule="evenodd" d="M1868.98 985.63C1871.78 985.007 1874.71 985.368 1877.28 986.652L1874.48 992.242L1877.28 986.652L1881.46 988.744C1888.19 992.106 1890.44 1000.6 1886.27 1006.86L1879.71 1016.7L1890.59 1038.45C1891.72 1040.72 1891.38 1043.44 1889.72 1045.35C1888.07 1047.25 1885.42 1047.98 1883.02 1047.18L1866.73 1041.75L1861.39 1044.42L1864.5 1053.75H1875.41C1879.58 1053.75 1883.49 1055.84 1885.81 1059.32L1890.22 1065.94C1895.53 1073.91 1893.98 1084.61 1886.62 1090.74L1857.75 1114.8C1855.61 1116.59 1852.53 1116.74 1850.23 1115.16C1847.92 1113.59 1846.94 1110.67 1847.82 1108.02L1852.56 1093.8L1842.37 1087.01C1837.13 1083.51 1835.31 1076.66 1838.13 1071.02L1842.48 1062.31C1843.42 1060.43 1842.28 1058.17 1840.2 1057.83L1825.67 1055.41C1816.63 1053.9 1810 1046.08 1810 1036.91V1008.76C1810 1002.9 1814.07 997.832 1819.79 996.561L1868.98 985.63ZM1871.69 997.833L1822.5 1008.76L1821.14 1002.66L1822.5 1008.76V1036.91C1822.5 1039.97 1824.71 1042.57 1827.72 1043.08L1842.26 1045.5C1845.14 1045.98 1847.67 1047.2 1849.72 1048.92L1849.53 1048.37C1847.57 1042.47 1850.24 1036.02 1855.8 1033.24L1861.14 1030.57C1864.1 1029.08 1867.54 1028.84 1870.68 1029.89L1872.66 1030.55L1868.53 1022.29C1866.53 1018.28 1866.82 1013.5 1869.31 1009.77L1875.87 999.924L1871.69 997.833ZM1855.27 1062.18C1855.12 1064.1 1854.59 1066.04 1853.66 1067.9L1849.31 1076.61L1859.49 1083.4C1862.66 1085.51 1864.61 1088.88 1864.99 1092.49L1878.62 1081.14C1881.07 1079.09 1881.59 1075.53 1879.82 1072.87L1875.41 1066.25H1864.5C1860.91 1066.25 1857.59 1064.72 1855.27 1062.18Z" fill="#DD44DD"/>
<path fill-rule="evenodd" clip-rule="evenodd" d="M1236.05 303.958C1265.8 333.715 1287.45 340.812 1300.35 341.585C1309.97 342.161 1318.11 334.568 1325.01 323.253L1298.51 303.372L1291.15 310.728C1288.6 313.281 1284.8 314.848 1280.73 314.166C1267.86 312.011 1255.24 304.372 1245.44 294.568C1235.64 284.764 1228 272.145 1225.84 259.279C1225.16 255.209 1226.73 251.41 1229.28 248.856L1236.64 241.501L1216.75 214.993C1205.44 221.893 1197.85 230.036 1198.42 239.659C1199.19 252.557 1206.29 274.201 1236.05 303.958ZM1299.6 354.062C1282.71 353.051 1258.35 343.939 1227.21 312.797C1196.07 281.656 1186.96 257.298 1185.94 240.406C1184.89 222.836 1198.99 211.073 1210.87 203.947C1216.05 200.836 1222.75 202.148 1226.37 206.985L1246.64 234.001C1250.37 238.978 1249.87 245.941 1245.47 250.34L1238.23 257.581C1239.94 267.113 1245.88 277.331 1254.28 285.729C1262.68 294.127 1272.89 300.071 1282.43 301.775L1289.67 294.534C1294.07 290.135 1301.03 289.64 1306.01 293.372L1333.02 313.635C1337.86 317.262 1339.17 323.958 1336.06 329.142C1328.93 341.019 1317.17 355.115 1299.6 354.062Z" fill="#11CCBB"/>
<path fill-rule="evenodd" clip-rule="evenodd" d="M610 737.5C603.096 737.5 597.5 743.096 597.5 750V850C597.5 856.904 603.096 862.5 610 862.5H658.483C661.799 862.5 664.978 861.183 667.322 858.839L718.839 807.322C721.183 804.978 722.5 801.799 722.5 798.483V750C722.5 743.096 716.904 737.5 710 737.5H610ZM585 750C585 736.193 596.193 725 610 725H710C723.807 725 735 736.193 735 750V798.483C735 805.114 732.366 811.473 727.678 816.161L676.161 867.678C671.473 872.366 665.114 875 658.483 875H610C596.193 875 585 863.807 585 850V750Z" fill="#11CCBB"/>
<path fill-rule="evenodd" clip-rule="evenodd" d="M613.858 800.476C616.194 799.509 618.882 800.043 620.669 801.831L658.169 839.331C659.957 841.118 660.492 843.806 659.524 846.142C658.557 848.477 656.278 850 653.75 850H616.25C612.798 850 610 847.202 610 843.75V806.25C610 803.722 611.523 801.443 613.858 800.476ZM622.5 821.339V837.5H638.661L622.5 821.339Z" fill="#11CCBB"/>
<path fill-rule="evenodd" clip-rule="evenodd" d="M638.125 762.5C632.947 762.5 628.75 766.697 628.75 771.875C628.75 777.053 632.947 781.25 638.125 781.25C643.303 781.25 647.5 777.053 647.5 771.875C647.5 766.697 643.303 762.5 638.125 762.5ZM616.25 771.875C616.25 759.794 626.044 750 638.125 750C650.206 750 660 759.794 660 771.875C660 783.956 650.206 793.75 638.125 793.75C626.044 793.75 616.25 783.956 616.25 771.875Z" fill="#11CCBB"/>
<path fill-rule="evenodd" clip-rule="evenodd" d="M666.25 793.75C666.25 790.298 669.048 787.5 672.5 787.5H703.75C707.202 787.5 710 790.298 710 793.75V825C710 828.452 707.202 831.25 703.75 831.25H672.5C669.048 831.25 666.25 828.452 666.25 825V793.75ZM678.75 800V818.75H697.5V800H678.75Z" fill="#11CCBB"/>
<path d="M1322.5 721.875C1320.13 721.875 1317.97 723.213 1316.91 725.33L1312.39 734.375H1205.66C1194.25 734.375 1185.49 744.481 1187.1 755.777L1196.03 818.277C1197.35 827.514 1205.26 834.375 1214.59 834.375H1257.81C1258.71 829.95 1260.23 825.752 1262.28 821.875H1214.59C1211.48 821.875 1208.84 819.588 1208.4 816.509L1199.48 754.009C1198.94 750.244 1201.86 746.875 1205.66 746.875H1309.38L1304.61 796.883C1308.9 796.96 1313.06 797.615 1316.99 798.771L1322.36 742.378L1326.36 734.375H1335C1338.45 734.375 1341.25 731.577 1341.25 728.125C1341.25 724.673 1338.45 721.875 1335 721.875H1322.5Z" fill="#0077FF"/>
<path d="M1185 856.25C1185 859.702 1187.8 862.5 1191.25 862.5H1197.5C1197.5 869.404 1203.1 875 1210 875C1216.9 875 1222.5 869.404 1222.5 862.5H1260.78C1259.06 858.583 1257.87 854.388 1257.29 850H1210H1191.25C1187.8 850 1185 852.798 1185 856.25Z" fill="#0077FF"/>
<path fill-rule="evenodd" clip-rule="evenodd" d="M1303.75 806.25C1283.04 806.25 1266.25 823.039 1266.25 843.75C1266.25 864.461 1283.04 881.25 1303.75 881.25C1324.46 881.25 1341.25 864.461 1341.25 843.75C1341.25 823.039 1324.46 806.25 1303.75 806.25ZM1303.75 821.875C1305.48 821.875 1306.88 823.274 1306.88 825V840.625H1322.5C1324.23 840.625 1325.62 842.024 1325.62 843.75C1325.62 845.476 1324.23 846.875 1322.5 846.875H1306.88V862.5C1306.88 864.226 1305.48 865.625 1303.75 865.625C1302.02 865.625 1300.62 864.226 1300.62 862.5V846.875H1285C1283.27 846.875 1281.88 845.476 1281.88 843.75C1281.88 842.024 1283.27 840.625 1285 840.625H1300.62V825C1300.62 823.274 1302.02 821.875 1303.75 821.875Z" fill="#0077FF"/>
<path fill-rule="evenodd" clip-rule="evenodd" d="M660 214.375C648.397 214.375 637.269 218.984 629.064 227.189C620.859 235.394 616.25 246.522 616.25 258.125C616.25 263.87 617.382 269.559 619.58 274.867C620.283 276.564 621.091 278.212 621.997 279.801C623.3 282.085 624.604 284.182 625.973 286.385C626.881 287.846 627.818 289.352 628.802 290.991C631.14 294.882 633.479 299.104 635.243 303.728L639.305 314.375H680.695L684.757 303.728C686.521 299.104 688.86 294.882 691.198 290.991C692.182 289.352 693.119 287.846 694.027 286.385C695.396 284.182 696.7 282.085 698.003 279.801C698.909 278.212 699.717 276.564 700.42 274.867C702.618 269.559 703.75 263.87 703.75 258.125C703.75 246.522 699.141 235.394 690.936 227.189C682.731 218.984 671.603 214.375 660 214.375ZM678.75 326.875H641.25V333.125C641.25 340.029 646.846 345.625 653.75 345.625H666.25C673.154 345.625 678.75 340.029 678.75 333.125V326.875ZM628.75 321.777L623.564 308.184C622.191 304.584 620.293 301.099 618.087 297.429C617.316 296.144 616.46 294.765 615.577 293.341C614.086 290.939 612.517 288.41 611.139 285.994C609.974 283.951 608.936 281.833 608.032 279.651C605.205 272.826 603.75 265.512 603.75 258.125C603.75 243.207 609.676 228.899 620.225 218.35C630.774 207.801 645.082 201.875 660 201.875C674.918 201.875 689.226 207.801 699.775 218.35C710.324 228.899 716.25 243.207 716.25 258.125C716.25 265.512 714.795 272.826 711.968 279.651C711.064 281.833 710.026 283.951 708.861 285.994C707.483 288.41 705.914 290.939 704.423 293.341C703.54 294.765 702.684 296.144 701.913 297.429C699.707 301.099 697.809 304.584 696.436 308.184L691.25 321.777V333.125C691.25 346.932 680.057 358.125 666.25 358.125H653.75C639.943 358.125 628.75 346.932 628.75 333.125V321.777Z" fill="#AACF3B"/>
<path fill-rule="evenodd" clip-rule="evenodd" d="M660 261.25C663.452 261.25 666.25 264.048 666.25 267.5V317.5C666.25 320.952 663.452 323.75 660 323.75C656.548 323.75 653.75 320.952 653.75 317.5V267.5C653.75 264.048 656.548 261.25 660 261.25Z" fill="#AACF3B"/>
<path fill-rule="evenodd" clip-rule="evenodd" d="M897.5 223.75C897.5 209.943 908.693 198.75 922.5 198.75H997.5C1011.31 198.75 1022.5 209.943 1022.5 223.75V342.5H1022.43C1022.48 343.015 1022.5 343.536 1022.5 344.062C1022.5 353.555 1014.8 361.25 1005.31 361.25H922.5C908.693 361.25 897.5 350.057 897.5 336.25V223.75ZM910 333.127V336.25C910 343.154 915.596 348.75 922.5 348.75H1005.31C1007.9 348.75 1010 346.651 1010 344.062C1010 341.474 1007.9 339.375 1005.31 339.375H928.75C921.715 339.375 915.223 337.05 910 333.127ZM910 308.125C910 318.48 918.395 326.875 928.75 326.875H1005.31C1006.94 326.875 1008.51 327.101 1010 327.522V223.75C1010 216.846 1004.4 211.25 997.5 211.25H922.5C915.596 211.25 910 216.846 910 223.75V308.125Z" fill="#00CC66"/>
<path d="M957.895 234.704C958.446 232.501 956.797 230.261 954.528 230.191L953.172 230.149C950.564 230.069 948.349 232.246 948.093 234.843C948.087 234.907 948.08 234.971 948.074 235.034C947.166 243.205 945.681 255.338 945.681 266.149C945.681 276.031 947.268 285.968 949.195 293.328C949.873 295.914 952.583 297.323 955.147 296.565V296.565C957.827 295.773 959.308 292.929 958.537 290.242C956.494 283.128 954.924 275.058 954.924 264.499C954.924 254.265 956.327 242.38 957.895 234.704V234.704ZM944.277 239.409C941.285 239.409 937.534 239.175 934.36 238.899C931.595 238.659 929.157 240.859 929.23 243.633V243.633C929.291 245.994 931.17 247.911 933.529 248.031C936.998 248.208 941.007 248.405 944.03 248.405C955.184 248.405 970.239 247.413 981.384 245.725C983.557 245.396 985.117 243.499 985.098 241.302V241.302C985.073 238.393 982.345 236.268 979.487 236.813C968.693 238.868 957.657 239.409 944.277 239.409ZM978.168 256.416C979.026 253.855 977.518 250.952 974.894 250.312V250.312C972.245 249.666 969.609 251.606 969.035 254.272C968.879 254.998 968.711 255.657 968.542 256.163C965.241 267.552 959.629 274.898 953.604 280.428C948.569 285.132 943.039 287.856 939.16 287.856C936.437 287.856 935.364 286.452 935.364 283.729C935.364 278.199 941.224 270.276 949.477 266.397C953.521 264.581 959.464 262.435 966.974 262.435C978.116 262.435 984.141 268.378 984.141 275.393C984.141 282.198 979.618 288.889 968.905 291.936C965.645 292.864 963.805 296.646 965.616 299.511V299.511C966.591 301.053 968.4 301.887 970.186 301.514C988.125 297.771 994.375 287.016 994.375 275.888C994.375 263.013 982.985 254.1 967.552 254.1C961.362 254.1 954.594 255.338 949.147 257.318C936.024 262.105 925.625 274.238 925.625 285.875C925.625 294.293 930.66 297.925 936.684 297.925C943.865 297.925 951.045 294.293 956.41 290.332C964.25 284.554 972.751 273.412 977.456 258.556C977.64 258.005 977.89 257.244 978.168 256.416Z" fill="#00CC66"/>
<path fill-rule="evenodd" clip-rule="evenodd" d="M962.556 731.494C972.75 725.593 984.749 723.623 996.295 725.956C1007.84 728.289 1018.13 734.763 1025.24 744.159C1032.34 753.555 1035.76 765.224 1034.86 776.967C1033.95 788.711 1028.79 799.719 1020.33 807.918C1011.87 816.116 1000.71 820.939 988.943 821.477C983.826 821.712 978.748 821.128 973.889 819.787V822.917C973.889 826.368 971.091 829.167 967.639 829.167H950.972V845.833C950.972 849.285 948.174 852.083 944.722 852.083H928.056V868.75C928.056 872.202 925.257 875 921.806 875H891.25C887.798 875 885 872.202 885 868.75V838.194C885 836.537 885.658 834.947 886.831 833.775L939.169 781.437C937.832 773.651 938.416 765.596 940.952 757.994C944.678 746.82 952.362 737.395 962.556 731.494ZM961.389 816.667V810.687C961.389 808.512 962.52 806.493 964.375 805.357C966.23 804.221 968.542 804.131 970.48 805.12C975.97 807.921 982.131 809.276 988.372 808.99C997.09 808.591 1005.36 805.018 1011.63 798.943C1017.9 792.867 1021.72 784.711 1022.39 776.008C1023.06 767.306 1020.53 758.659 1015.27 751.697C1010 744.734 1002.37 739.937 993.819 738.209C985.264 736.48 976.372 737.94 968.818 742.312C961.265 746.685 955.571 753.669 952.809 761.949C950.644 768.442 950.399 775.381 952.042 781.948C952.575 784.078 951.952 786.332 950.399 787.885L897.5 840.783V862.5H915.556V845.833C915.556 842.382 918.354 839.583 921.806 839.583H938.472V822.917C938.472 819.465 941.27 816.667 944.722 816.667H961.389Z" fill="#44BBFF"/>
<path d="M1003.75 765.625C1003.75 770.803 999.553 775 994.375 775C989.197 775 985 770.803 985 765.625C985 760.447 989.197 756.25 994.375 756.25C999.553 756.25 1003.75 760.447 1003.75 765.625Z" fill="#44BBFF"/>
<path fill-rule="evenodd" clip-rule="evenodd" d="M703.963 469.374C669.567 453.558 634.058 489.067 649.874 523.463C654.846 534.277 654.846 546.723 649.874 557.537C634.058 591.933 669.567 627.442 703.963 611.626C714.777 606.654 727.223 606.654 738.037 611.626C772.433 627.442 807.942 591.933 792.126 557.537C787.154 546.723 787.154 534.277 792.126 523.463C807.942 489.067 772.433 453.558 738.037 469.374C727.223 474.346 714.777 474.346 703.963 469.374ZM738.185 514.79L734.533 504.922C729.885 492.359 712.115 492.359 707.467 504.922L703.815 514.79C702.354 518.74 699.24 521.854 695.29 523.315L685.422 526.967C672.859 531.615 672.859 549.385 685.422 554.033L695.29 557.685C699.24 559.146 702.354 562.26 703.815 566.21L707.467 576.078C712.115 588.641 729.885 588.641 734.533 576.078L738.185 566.21C739.646 562.26 742.76 559.146 746.71 557.685L756.578 554.033C769.141 549.385 769.141 531.615 756.578 526.967L746.71 523.315C742.76 521.854 739.646 518.74 738.185 514.79Z" fill="white"/>
<path d="M903.547 479.228V602H880.97V479.228H903.547ZM958.015 603.978C949.501 603.978 942.03 602.055 935.603 598.21C929.176 594.365 924.177 589.036 920.607 582.225C917.036 575.413 915.251 567.53 915.251 558.577C915.251 549.623 917.036 541.713 920.607 534.846C924.177 527.98 929.176 522.624 935.603 518.779C942.03 514.933 949.501 513.011 958.015 513.011C965.376 513.011 971.94 514.439 977.708 517.295C983.476 520.152 988.118 524.107 991.633 529.161C995.204 534.159 997.264 539.927 997.813 546.464H976.719C976.28 543.388 975.264 540.669 973.671 538.307C972.078 535.945 969.99 534.104 967.408 532.786C964.827 531.468 961.778 530.809 958.262 530.809C953.868 530.809 950.077 531.962 946.891 534.269C943.705 536.521 941.261 539.735 939.558 543.91C937.855 548.03 937.004 552.919 937.004 558.577C937.004 564.18 937.855 569.068 939.558 573.243C941.261 577.363 943.705 580.549 946.891 582.801C950.077 585.054 953.868 586.18 958.262 586.18C963.591 586.18 967.738 584.751 970.704 581.895C973.671 579.039 975.621 575.221 976.554 570.442H997.813C997.374 576.869 995.396 582.609 991.88 587.663C988.365 592.717 983.696 596.699 977.873 599.61C972.05 602.522 965.431 603.978 958.015 603.978ZM1047.34 603.978C1038.77 603.978 1031.21 602.082 1024.68 598.292C1018.2 594.447 1013.14 589.119 1009.52 582.307C1005.95 575.495 1004.16 567.585 1004.16 558.577C1004.16 549.513 1005.95 541.575 1009.52 534.764C1013.14 527.952 1018.2 522.624 1024.68 518.779C1031.21 514.933 1038.77 513.011 1047.34 513.011C1055.96 513.011 1063.51 514.933 1070 518.779C1076.48 522.624 1081.5 527.952 1085.08 534.764C1088.7 541.575 1090.51 549.513 1090.51 558.577C1090.51 567.585 1088.7 575.495 1085.08 582.307C1081.5 589.119 1076.48 594.447 1070 598.292C1063.51 602.082 1055.96 603.978 1047.34 603.978ZM1047.34 586.097C1051.68 586.097 1055.44 584.999 1058.63 582.801C1061.87 580.549 1064.37 577.363 1066.12 573.243C1067.88 569.123 1068.76 564.234 1068.76 558.577C1068.76 552.864 1067.88 547.947 1066.12 543.827C1064.37 539.708 1061.87 536.521 1058.63 534.269C1055.44 532.017 1051.68 530.891 1047.34 530.891C1043.05 530.891 1039.29 532.017 1036.05 534.269C1032.81 536.467 1030.31 539.653 1028.55 543.827C1026.79 547.947 1025.91 552.864 1025.91 558.577C1025.91 564.289 1026.79 569.206 1028.55 573.326C1030.31 577.391 1032.78 580.549 1035.97 582.801C1039.21 584.999 1043 586.097 1047.34 586.097ZM1122.9 552.232V602H1101.31V514.988H1122.65V530.232L1122.9 529.985C1124.88 525.151 1128.09 521.141 1132.54 517.955C1136.99 514.769 1142.62 513.176 1149.43 513.176C1155.53 513.176 1161.05 514.549 1165.99 517.295C1170.94 519.987 1174.86 523.887 1177.78 528.996C1180.69 534.104 1182.14 540.312 1182.14 547.618V602H1160.55V550.914C1160.55 544.596 1158.88 539.79 1155.53 536.494C1152.23 533.198 1147.78 531.55 1142.18 531.55C1138.61 531.55 1135.37 532.292 1132.46 533.775C1129.55 535.258 1127.21 537.538 1125.45 540.614C1123.75 543.635 1122.9 547.508 1122.9 552.232ZM1266.69 542.179H1246.5C1246.44 538.389 1244.96 535.258 1242.05 532.786C1239.19 530.259 1235.46 528.996 1230.84 528.996C1226.39 528.996 1222.85 529.985 1220.21 531.962C1217.63 533.94 1216.34 536.384 1216.34 539.296C1216.34 541.822 1217.33 543.882 1219.31 545.475C1221.34 547.068 1224.14 548.249 1227.71 549.018L1243.53 552.232C1252.21 554.045 1258.58 556.901 1262.65 560.801C1266.77 564.646 1268.83 569.755 1268.83 576.127C1268.83 581.84 1267.24 586.784 1264.05 590.959C1260.86 595.134 1256.47 598.375 1250.87 600.682C1245.26 602.934 1238.84 604.06 1231.58 604.06C1224.39 604.06 1217.96 602.961 1212.3 600.764C1206.65 598.512 1202.11 595.216 1198.71 590.876C1195.3 586.537 1193.35 581.236 1192.86 574.974H1214.12C1214.61 579.148 1216.31 582.389 1219.22 584.697C1222.14 586.949 1226.12 588.075 1231.17 588.075C1236.12 588.075 1239.99 587.114 1242.79 585.191C1245.59 583.268 1246.99 580.824 1246.99 577.858C1246.99 575.276 1245.95 573.216 1243.86 571.678C1241.77 570.14 1238.89 568.986 1235.21 568.217L1220.3 565.168C1211.95 563.465 1205.6 560.499 1201.26 556.269C1196.98 552.04 1194.84 546.629 1194.84 540.037C1194.84 534.654 1196.29 529.957 1199.2 525.947C1202.11 521.882 1206.23 518.724 1211.56 516.471C1216.89 514.219 1223.15 513.093 1230.35 513.093C1237.49 513.093 1243.75 514.274 1249.14 516.636C1254.52 518.998 1258.75 522.349 1261.82 526.689C1264.9 531.028 1266.52 536.192 1266.69 542.179Z" fill="white"/>
</g>
<defs>
<clipPath id="clip0_3085_859">
<rect width="1920" height="1080" fill="white"/>
</clipPath>
</defs>
</svg>
