<svg width="1920" height="1080" viewBox="0 0 1920 1080" fill="none" xmlns="http://www.w3.org/2000/svg">
<rect width="1920" height="1080" fill="#110707"/>
<rect width="1920" height="1080" fill="url(#paint0_radial_3080_772)"/>
<path d="M467.585 559.571V490H500.156V590H448.585L412.442 520.429H409.87V590H377.299V490H428.727L464.87 559.571H467.585Z" fill="#FF5544"/>
<path d="M601.246 590H509.246V490H600.246V514.286H541.818V527.143H595.103V551.429H541.818V565.714H601.246V590Z" fill="#FF5544"/>
<path d="M665.675 564L687.532 490H720.103L690.532 590H632.961L603.246 490H635.961L657.818 564H665.675Z" fill="#FF5544"/>
<path d="M816.592 590H724.592V490H815.592V514.286H757.164V527.143H810.449V551.429H757.164V565.714H816.592V590Z" fill="#FF5544"/>
<path d="M904.164 560.571L935.307 590H895.021L867.307 563.571H856.307V590H824.592V490H880.592C896.688 490 908.878 493.143 917.164 499.429C925.545 505.619 929.735 514.762 929.735 526.857C929.735 544.286 921.211 555.524 904.164 560.571ZM880.592 515.429H856.307V538.429H880.592C892.211 538.429 898.021 534.571 898.021 526.857C898.021 519.238 892.211 515.429 880.592 515.429Z" fill="#FF5544"/>
<path d="M970.278 590H937.706V490H1025.28V515.857H970.278V535.143H1021.71V561.143H970.278V590Z" fill="#FF5544"/>
<path d="M1141.87 590H1109.02L1104.02 573.857H1057.16L1052.16 590H1019.3L1050.16 490H1110.87L1141.87 590ZM1075.3 515.857L1065.3 548H1096.02L1086.02 515.857H1075.3Z" fill="#FF5544"/>
<path d="M1230.23 590H1145.66V490H1178.23V564H1230.23V590Z" fill="#FF5544"/>
<path d="M1289.45 590H1256.59V515.857H1219.02V490H1327.02V515.857H1289.45V590Z" fill="#FF5544"/>
<path d="M1423.99 590H1331.99V490H1422.99V514.286H1364.56V527.143H1417.84V551.429H1364.56V565.714H1423.99V590Z" fill="#FF5544"/>
<path d="M1511.56 560.571L1542.7 590H1502.41L1474.7 563.571H1463.7V590H1431.99V490H1487.99C1504.08 490 1516.27 493.143 1524.56 499.429C1532.94 505.619 1537.13 514.762 1537.13 526.857C1537.13 544.286 1528.61 555.524 1511.56 560.571ZM1487.99 515.429H1463.7V538.429H1487.99C1499.61 538.429 1505.41 534.571 1505.41 526.857C1505.41 519.238 1499.61 515.429 1487.99 515.429Z" fill="#FF5544"/>
<defs>
<radialGradient id="paint0_radial_3080_772" cx="0" cy="0" r="1" gradientUnits="userSpaceOnUse" gradientTransform="translate(960 1080.55) rotate(-90) scale(1080.55 1116.6)">
<stop stop-color="#FF5544" stop-opacity="0.25"/>
<stop offset="1" stop-color="#FF5544" stop-opacity="0"/>
</radialGradient>
</defs>
</svg>
