<svg width="1920" height="1080" viewBox="0 0 1920 1080" fill="none" xmlns="http://www.w3.org/2000/svg">
<rect width="1920" height="1080" fill="#2B153C"/>
<rect width="1920" height="1080" fill="url(#paint0_radial_3085_801)"/>
<path fill-rule="evenodd" clip-rule="evenodd" d="M810 405.306C810 396.853 816.853 390 825.306 390H1005.92C1011.89 390 1017.32 393.476 1019.82 398.902C1022.32 404.328 1021.43 410.713 1017.55 415.253L858.533 601.224H898.776C907.229 601.224 914.082 608.077 914.082 616.531C914.082 624.984 907.229 631.837 898.776 631.837H825.306C819.332 631.837 813.904 628.361 811.404 622.935C808.905 617.509 809.791 611.124 813.673 606.583L972.692 420.612H825.306C816.853 420.612 810 413.759 810 405.306ZM1005.92 463.469C1005.92 455.016 1012.77 448.163 1021.22 448.163H1094.69C1100.67 448.163 1106.1 451.639 1108.6 457.065C1111.1 462.491 1110.21 468.876 1106.33 473.417L947.308 659.388H1094.69C1103.15 659.388 1110 666.241 1110 674.694C1110 683.147 1103.15 690 1094.69 690H914.082C908.108 690 902.679 686.524 900.18 681.098C897.68 675.672 898.566 669.287 902.449 664.747L1061.47 478.776H1021.22C1012.77 478.776 1005.92 471.923 1005.92 463.469Z" fill="#AA55EE"/>
<defs>
<radialGradient id="paint0_radial_3085_801" cx="0" cy="0" r="1" gradientUnits="userSpaceOnUse" gradientTransform="translate(960 1080) rotate(90) scale(1238 2200.89)">
<stop stop-color="#AA55EE" stop-opacity="0.5"/>
<stop offset="1" stop-color="#AA55EE" stop-opacity="0"/>
</radialGradient>
</defs>
</svg>
