<svg viewBox="0 0 50 50" fill="none" xmlns="http://www.w3.org/2000/svg"><path d="M16.6667 25C7.46192 25 0 17.5381 0 8.33333H8.33333V0C17.5381 0 25 7.46192 25 16.6667C25 21.269 21.269 25 16.6667 25Z" fill="#f58"/><path d="M33.3333 25C42.5381 25 50 17.5381 50 8.33333H41.6667V0C32.4619 0 25 7.46192 25 16.6667C25 21.269 28.731 25 33.3333 25Z" fill="#f58"/><path d="M16.6667 25C7.46192 25 0 32.4619 0 41.6667H8.33333V50C17.5381 50 25 42.5381 25 33.3333C25 28.731 21.269 25 16.6667 25Z" fill="#f58"/><path d="M33.3333 25C42.5381 25 50 32.4619 50 41.6667H41.6667V50C32.4619 50 25 42.5381 25 33.3333C25 28.731 28.731 25 33.3333 25Z" fill="#f58"/></svg>