<svg width="50" height="50" viewBox="0 0 50 50" fill="none" xmlns="http://www.w3.org/2000/svg">
<path fill-rule="evenodd" clip-rule="evenodd" d="M25 40C38.8072 40 50 25 50 25C50 25 38.8072 10 25 10C11.1929 10 0 25 0 25C0 25 11.1929 40 25 40ZM25 35.9135C31.3018 35.9135 36.4102 31.0273 36.4102 25C36.4102 18.9727 31.3018 14.0865 25 14.0865C18.6982 14.0865 13.5898 18.9727 13.5898 25C13.5898 31.0273 18.6982 35.9135 25 35.9135ZM31.5384 25C31.5384 28.4538 28.6112 31.2538 25 31.2538C21.3888 31.2538 18.4616 28.4538 18.4616 25C18.4616 21.5462 21.3888 18.7462 25 18.7462C28.6112 18.7462 31.5384 21.5462 31.5384 25ZM25.1193 20.8025C25.1024 20.6666 24.8969 20.6666 24.88 20.8025L24.739 21.9426C24.5569 23.4147 23.347 24.5753 21.8123 24.75L20.6238 24.8853C20.4822 24.9014 20.4822 25.0986 20.6238 25.1147L21.8123 25.25C23.347 25.4247 24.5569 26.5853 24.739 28.0574L24.88 29.1974C24.8969 29.3333 25.1024 29.3333 25.1193 29.1974L25.2603 28.0574C25.4424 26.5853 26.6523 25.4247 28.187 25.25L29.3755 25.1147C29.5171 25.0986 29.5171 24.9014 29.3755 24.8853L28.187 24.75C26.6523 24.5753 25.4424 23.4147 25.2603 21.9426L25.1193 20.8025Z" fill="#FF4E87"/>
</svg>
